<?xml version="1.0" standalone="no"?>
<!DOCTYPE svg PUBLIC "-//W3C//DTD SVG 20010904//EN"
 "http://www.w3.org/TR/2001/REC-SVG-20010904/DTD/svg10.dtd">
<svg version="1.0" xmlns="http://www.w3.org/2000/svg"
 width="267.000000pt" height="267.000000pt" viewBox="0 0 267.000000 267.000000"
 preserveAspectRatio="xMidYMid meet">
<metadata>
Created by potrace 1.14, written by Peter Selinger 2001-2017
</metadata>
<g transform="translate(0.000000,267.000000) scale(0.100000,-0.100000)"
fill="#000000" stroke="none">
<path d="M1156 2633 c-4 -5 -22 -8 -39 -9 -18 0 -52 -4 -77 -8 -25 -4 -52 -8
-60 -9 -8 -2 -21 -7 -29 -11 -10 -7 -12 -6 -6 4 6 10 4 11 -6 4 -15 -9 -29
-12 -66 -16 -13 -1 -23 -6 -23 -10 0 -4 -7 -5 -15 -2 -8 4 -15 2 -15 -3 0 -7
-22 -13 -67 -16 -7 0 -13 -4 -13 -9 0 -4 -6 -8 -12 -8 -7 0 -26 -7 -41 -15
-15 -8 -25 -10 -22 -6 3 5 -6 4 -19 -2 -13 -7 -22 -15 -19 -20 3 -5 -1 -8 -8
-7 -21 3 -59 -11 -59 -21 0 -5 -7 -9 -15 -9 -22 0 -76 -36 -67 -45 4 -5 1 -5
-6 -1 -7 4 -26 -3 -44 -16 -53 -39 -216 -205 -223 -227 -3 -12 -10 -19 -14
-17 -12 8 -96 -160 -126 -252 -48 -146 -65 -284 -60 -480 2 -95 6 -176 9 -180
2 -4 7 -29 10 -57 11 -83 52 -244 89 -345 148 -409 404 -669 676 -687 123 -9
218 30 189 77 -15 23 -78 58 -176 95 -79 31 -89 40 -27 24 73 -19 230 -19 293
0 88 27 182 93 182 129 0 7 -13 19 -30 25 -37 14 -38 23 -2 32 43 12 53 14
112 20 141 15 200 35 241 83 26 32 30 43 25 77 -6 50 -32 72 -94 80 -51 6
-231 34 -247 38 -119 32 -145 42 -145 53 0 8 10 14 23 14 13 0 27 4 32 9 6 6
23 12 38 15 16 3 36 11 45 18 11 9 14 9 9 1 -5 -9 3 -8 28 3 20 8 55 16 79 17
24 1 42 5 39 10 -2 4 15 8 39 9 45 1 69 4 78 8 3 1 15 4 26 5 12 1 33 5 48 9
21 5 26 4 20 -6 -5 -10 -4 -11 7 0 7 6 31 12 54 12 23 0 47 6 54 13 11 10 13
10 7 0 -4 -7 -2 -13 3 -13 6 0 11 4 11 9 0 6 8 10 18 10 39 1 92 14 92 22 0 5
6 9 14 9 8 0 17 6 19 13 4 9 6 9 6 -1 1 -7 12 -1 25 14 18 22 22 34 16 55 -11
37 -51 74 -107 98 -11 6 -24 15 -28 21 -3 5 -11 8 -16 5 -5 -4 -12 0 -15 8 -2
7 -11 14 -19 15 -8 1 -22 3 -30 4 -8 1 -15 5 -15 10 0 4 -3 7 -7 6 -5 -1 -42
9 -83 22 -41 13 -83 23 -92 22 -10 0 -18 5 -18 11 0 7 -4 6 -10 -3 -6 -10 -10
-11 -10 -2 0 7 -15 12 -40 12 -25 0 -40 5 -40 13 0 9 -2 9 -9 -1 -6 -10 -10
-10 -21 3 -7 8 -11 15 -9 16 16 3 39 9 67 18 17 5 32 7 32 4 0 -3 6 0 13 6 8
6 16 9 19 6 2 -3 20 0 39 6 34 10 67 16 124 24 63 8 70 10 77 20 5 6 8 5 8 -2
0 -9 7 -10 23 -4 12 4 30 7 40 6 9 -2 17 2 17 8 0 7 5 5 10 -3 5 -8 10 -10 10
-4 0 6 12 11 28 11 108 3 152 7 152 15 0 5 9 4 19 -2 11 -5 22 -6 25 -2 3 5
27 8 55 8 27 -1 47 2 44 7 -2 4 13 8 34 8 21 1 50 2 65 3 14 0 24 4 22 7 -3 6
87 24 114 22 6 0 12 3 12 8 0 5 16 9 35 9 19 0 35 5 35 10 0 6 11 8 24 6 15
-3 27 1 30 10 3 8 9 14 13 13 4 -1 10 -1 13 1 3 1 16 4 29 6 14 2 32 11 41 19
9 8 19 13 21 11 2 -3 4 48 4 112 0 102 -2 119 -19 134 -10 10 -23 15 -27 12
-5 -3 -9 -1 -9 5 0 5 -9 8 -20 6 -11 -2 -18 0 -15 6 4 5 -2 9 -12 9 -11 0 -25
6 -32 13 -11 10 -12 9 -6 -2 5 -9 1 -9 -17 3 -13 9 -38 18 -54 19 -16 2 -39 9
-50 15 -12 6 -24 9 -27 5 -3 -3 -14 -2 -24 3 -10 4 -30 8 -45 9 -15 1 -31 4
-34 8 -4 4 -27 7 -51 7 -28 0 -43 4 -43 13 0 8 -4 7 -10 -3 -7 -10 -10 -11
-10 -2 0 7 -12 12 -27 12 -30 -1 -116 7 -120 10 -2 2 -11 3 -20 4 -10 1 -24 5
-30 9 -7 5 -13 4 -13 0 0 -5 -9 -9 -20 -9 -11 0 -20 3 -20 7 0 5 -92 12 -142
11 -10 -1 -18 3 -18 8 0 5 -8 9 -17 9 -30 0 -78 13 -84 24 -4 5 -18 10 -33 10
-14 0 -26 3 -26 7 0 3 -6 7 -12 7 -19 1 -68 11 -106 22 -18 5 -35 10 -37 10
-3 1 -6 1 -7 2 -8 2 -76 11 -93 12 -11 1 -22 5 -25 9 -3 4 -31 8 -63 9 -31 1
-57 5 -57 8 0 3 -24 8 -53 10 -89 6 -122 9 -127 11 -3 1 -17 2 -32 2 -39 1
-35 18 5 19 17 1 35 1 40 0 4 0 7 3 7 8 0 4 16 7 35 6 19 -1 35 2 35 7 0 4 15
8 34 8 19 0 38 5 41 10 5 8 11 8 20 0 8 -7 15 -7 19 -1 4 5 14 10 24 9 28 0
78 8 91 16 6 4 11 2 11 -4 0 -6 5 -8 12 -4 7 4 24 8 38 9 14 1 32 5 39 10 9 5
12 4 8 -2 -3 -5 0 -10 8 -10 8 0 12 3 10 6 -2 3 31 8 73 9 135 6 147 7 159 15
6 4 14 3 18 -3 3 -5 11 -10 16 -10 6 0 8 3 6 8 -3 4 6 8 20 9 18 1 22 -2 13
-7 -8 -5 3 -6 26 -3 21 3 185 6 364 8 179 2 328 4 333 4 15 2 6 23 -13 28 -11
3 -20 9 -20 14 0 5 -7 9 -15 9 -8 0 -15 5 -15 11 0 5 -4 8 -9 5 -5 -3 -19 3
-32 13 -13 10 -30 16 -36 14 -7 -3 -13 0 -13 6 0 6 -11 11 -24 11 -13 0 -26 4
-28 10 -1 5 -12 11 -23 13 -11 2 -33 9 -48 15 -16 7 -34 12 -42 12 -8 0 -17 5
-20 11 -4 6 -13 8 -20 5 -7 -2 -21 1 -31 8 -11 6 -31 12 -46 11 -15 0 -24 3
-22 7 3 4 -5 8 -18 8 -13 0 -30 6 -37 13 -11 10 -13 10 -7 0 4 -7 2 -13 -3
-13 -6 0 -11 4 -11 9 0 6 -9 8 -20 6 -11 -2 -20 -1 -20 3 0 4 -8 8 -17 9 -10
1 -39 4 -64 6 -26 3 -51 7 -57 11 -9 6 -42 9 -169 20 -12 1 -25 5 -29 9 -4 4
-12 7 -18 7 -6 0 -4 -5 4 -11 12 -9 11 -10 -5 -4 -36 12 -50 13 -64 1 -11 -8
-13 -8 -8 1 5 8 -30 11 -138 11 -104 0 -143 -4 -138 -12 4 -6 -1 -5 -10 3 -14
11 -17 11 -17 0 0 -11 -2 -11 -8 -1 -5 7 -12 9 -16 5z"/>
<path d="M1228 194 c-2 -2 -18 -5 -35 -9 -46 -8 -98 -41 -112 -72 -11 -23 -9
-29 9 -47 17 -18 33 -21 98 -21 80 1 143 21 189 62 36 32 34 68 -4 78 -29 8
-140 15 -145 9z"/>
</g>
</svg>
