<svg width="111" height="150" viewBox="0 0 111 150" fill="none" xmlns="http://www.w3.org/2000/svg">
<path d="M22.2613 58.8471C22.2613 58.8471 8.94113 114.327 9.96645 124.207C10.9918 134.086 85.181 129.112 93.9656 125.98C102.75 122.85 87.2586 55.1304 87.2586 55.1304L22.2613 58.8454V58.8471Z" fill="#FFC950"/>
<path d="M23 148.5L96.2779 149.973L78.2564 89.8572L37.8993 90.2884C37.8993 90.2884 25.6039 135.141 23 148.5Z" fill="white"/>
<path d="M42.5609 149.676C42.5284 149.676 42.496 149.675 42.4635 149.671C42.0473 149.617 41.7536 149.24 41.8058 148.826L46.199 114.729C46.2531 114.316 46.6333 114.024 47.0496 114.076C47.4658 114.13 47.7596 114.508 47.7073 114.919L43.3141 149.016C43.2654 149.397 42.9375 149.675 42.5627 149.675L42.5609 149.676Z" fill="black"/>
<path d="M76.8907 150C76.5249 150 76.2024 149.735 76.1411 149.365L72.0722 124.156C72.0056 123.744 72.2885 123.358 72.7011 123.292C73.1156 123.225 73.5048 123.506 73.5715 123.916L77.6403 149.125C77.707 149.536 77.4241 149.923 77.0115 149.989C76.97 149.996 76.9304 149.998 76.8907 149.998V150Z" fill="black"/>
<path d="M11.8212 78.6659C11.8212 78.6659 1.34812 77.39 0.803922 84.4746C0.259725 91.5592 5.33589 97.4609 9.85165 99.4759C12.7132 100.754 18.1624 100.449 20.5914 99.3148C25.5613 96.9921 32.6322 83.6407 22.5448 77.177C15.6774 72.7785 11.8212 78.6677 11.8212 78.6677V78.6659Z" fill="#FFCC00"/>
<path d="M10.993 80.3406C10.5731 80.3406 10.2343 80.0024 10.2343 79.5873C10.2343 77.0587 9.66851 75.178 8.59634 74.1508C7.70616 73.2954 6.76193 73.3026 6.75111 73.3026C6.33306 73.3151 5.97987 72.9912 5.96725 72.5742C5.95284 72.1573 6.2808 71.8083 6.70066 71.7958C6.76553 71.794 8.29 71.7582 9.6523 73.0664C11.047 74.4049 11.7534 76.5988 11.7534 79.5873C11.7534 80.0042 11.4128 80.3406 10.9948 80.3406H10.993Z" fill="black"/>
<path d="M17.6623 91.2331L1.39048 88.9712C1.39048 88.9712 -2.5144 119.351 12.7808 119.674C28.076 119.997 25.7983 92.688 25.7983 92.688L17.6623 91.2331V91.2331Z" fill="#FF8312"/>
<path d="M25.8006 92.688L17.6646 91.2331L1.39278 88.9712C1.39278 88.9712 1.37115 89.143 1.33691 89.4579C2.73164 94.2323 6.45273 97.9562 9.85486 99.4755C12.7164 100.753 18.1656 100.449 20.5946 99.3145C22.3714 98.4841 24.4148 96.2455 25.8474 93.4163C25.8222 92.9492 25.8006 92.688 25.8006 92.688V92.688Z" fill="#FFC950"/>
<path d="M83.1006 55.8144L95.6117 29.0955L106.027 32.7585L91.7068 62.7093L83.1006 55.8144Z" fill="#FFC950"/>
<path d="M21.0806 47.9723C17.4425 54.4592 15.6243 60.9443 20.1706 61.8713C24.717 62.7983 94.7454 64.0956 94.7454 62.7983C94.7454 61.5009 90.1973 45.1932 81.1045 44.4524C72.0099 43.7115 24.7188 41.4872 21.0806 47.9741V47.9723Z" fill="#FF8312"/>
<path d="M87.0343 47.4124L83.1006 55.8122L91.7068 62.7071L93.6223 58.7005C92.4096 55.2629 90.213 50.476 87.0343 47.4124V47.4124Z" fill="#FFCC00"/>
<path d="M81.5089 53.0116C66.9723 49.4022 51.7907 51.0951 51.7907 51.0951C51.7907 51.0951 51.5528 51.0915 51.1203 51.104C48.0876 51.1917 35.4575 52.0703 27.4838 60.5543C18.3712 70.2498 -0.938795 95.0289 17.7207 104.726C36.3802 114.422 45.7108 92.2283 45.7108 92.2283L79.1248 92.0136C79.1248 92.0136 90.8413 113.992 105.812 102.572C120.783 91.1511 93.7731 56.0573 81.5107 53.0134L81.5089 53.0116Z" fill="#FF5D00"/>
<path d="M74.6091 61.769H47.7596C47.3397 61.769 47.001 61.4307 47.001 61.0156C47.001 60.6004 47.3415 60.2622 47.7596 60.2622H74.6091C75.0289 60.2622 75.3677 60.6004 75.3677 61.0156C75.3677 61.4307 75.0271 61.769 74.6091 61.769Z" fill="white"/>
<path d="M75.4217 75.8266H54.9188C54.4989 75.8266 54.1602 75.4884 54.1602 75.0732C54.1602 74.658 54.5007 74.3198 54.9188 74.3198H75.4217C75.8415 74.3198 76.1803 74.658 76.1803 75.0732C76.1803 75.4884 75.8397 75.8266 75.4217 75.8266Z" fill="white"/>
<path d="M78.8408 87.9467H49.3875C48.9677 87.9467 48.6289 87.6085 48.6289 87.1933C48.6289 86.7782 48.9695 86.4399 49.3875 86.4399H78.8408C79.2607 86.4399 79.5995 86.7782 79.5995 87.1933C79.5995 87.6085 79.2589 87.9467 78.8408 87.9467Z" fill="white"/>
<path d="M38.1584 105.561C37.8341 105.561 37.535 105.353 37.4341 105.031L29.136 78.5308C29.0116 78.1335 29.2351 77.7112 29.6351 77.5859C30.0351 77.4624 30.4604 77.6843 30.5865 78.0816L38.8846 104.582C39.009 104.979 38.7855 105.402 38.3855 105.527C38.3098 105.55 38.2341 105.561 38.1603 105.561H38.1584Z" fill="white"/>
<path d="M17.169 107.662C17.1402 107.662 17.1114 107.662 17.0825 107.657C16.6663 107.61 16.3672 107.236 16.414 106.823L18.3674 89.6936C18.4142 89.2802 18.7908 88.9832 19.2071 89.0297C19.6233 89.0762 19.9225 89.4502 19.8756 89.8636L17.9223 106.993C17.879 107.377 17.5493 107.662 17.169 107.662V107.662Z" fill="white"/>
<path d="M22.2134 85.0399C22.154 85.0399 22.0945 85.0327 22.035 85.0184L8.52923 81.7866C8.12199 81.6881 7.86971 81.2819 7.96882 80.8775C8.06793 80.4731 8.47698 80.2225 8.88422 80.321L22.39 83.5528C22.7973 83.6512 23.0496 84.0574 22.9505 84.4618C22.8658 84.8072 22.5558 85.0399 22.2134 85.0399Z" fill="white"/>
<path d="M33.6046 76.4747C33.3469 76.4747 33.0964 76.3441 32.9541 76.1097L23.3531 60.2727C23.1369 59.9166 23.2522 59.4531 23.6126 59.2383C23.9712 59.0236 24.4379 59.1381 24.6541 59.496L34.2551 75.333C34.4713 75.6891 34.356 76.1526 33.9956 76.3674C33.8731 76.4407 33.7379 76.4747 33.6046 76.4747Z" fill="white"/>
<path d="M91.3701 68.0711C91.1611 68.0711 90.952 67.9852 90.8025 67.8188C90.5232 67.5074 90.552 67.0314 90.8655 66.754L96.7238 61.5824C97.0373 61.305 97.5166 61.3337 97.7959 61.645C98.0753 61.9564 98.0464 62.4324 97.7329 62.7098L91.8747 67.8814C91.7305 68.0085 91.5503 68.0711 91.3701 68.0711V68.0711Z" fill="white"/>
<path d="M101.948 79.2209C101.701 79.2209 101.458 79.101 101.312 78.8791C101.081 78.5301 101.18 78.0631 101.532 77.8358L106.251 74.765C106.603 74.536 107.073 74.6344 107.302 74.9833C107.532 75.3323 107.433 75.7994 107.082 76.0266L102.363 79.0974C102.235 79.1815 102.09 79.2209 101.946 79.2209H101.948Z" fill="white"/>
<path d="M91.8561 106.046C91.7444 106.046 91.6309 106.021 91.5227 105.969C91.1461 105.787 90.9912 105.334 91.175 104.96L103.054 80.8824C103.237 80.5083 103.693 80.3545 104.07 80.537C104.447 80.7195 104.601 81.1722 104.418 81.5463L92.5391 105.624C92.4075 105.891 92.1372 106.046 91.8561 106.046V106.046Z" fill="white"/>
<path d="M44.967 7.31025C44.7238 6.41908 44.2769 5.55297 43.4876 4.6958C40.6855 1.65366 36.2815 -0.0195127 32.164 0.00017173C24.8714 0.0377511 21.8224 5.7856 21.1845 12.2689C20.3736 20.4988 21.2422 27.2917 15.793 34.2815C14.0739 36.4861 12.0521 38.4939 10.7655 40.9724C9.00497 44.3671 9.23742 49.2524 12.654 51.5877C14.6398 52.9441 17.3085 53.03 19.5952 52.2748C21.8657 51.5268 23.5776 50.0236 25.4462 48.6332C26.9094 50.2509 28.0915 51.6807 30.4503 52.1907C33.0776 52.7598 35.9301 52.2229 38.1682 50.7412C40.4062 49.2595 42.4803 44.2221 42.4803 44.2221C42.4803 44.2221 43.6498 46.0635 46.0302 46.391C47.9241 46.6522 49.7765 46.0009 50.8793 44.3957C52.1047 42.6134 52.2344 40.2977 51.9605 38.1575C51.346 33.3527 48.9494 29.2226 47.3132 24.7488C46.0068 21.1734 45.2698 17.3922 45.1454 13.5896C45.0697 11.299 45.4968 9.25185 44.967 7.31204V7.31025Z" fill="black"/>
<path d="M15.0401 55.0802C13.1805 55.0802 11.3515 54.5791 9.96755 53.6343C6.1798 51.0466 5.87706 45.2165 7.97276 41.6017C9.42876 39.0911 12.0416 36.949 14.1409 35.2275C15.442 34.161 16.5664 33.2394 17.1755 32.4574C17.4331 32.1281 17.9089 32.0673 18.2404 32.3232C18.572 32.5791 18.6333 33.0515 18.3756 33.3808C17.6638 34.2952 16.4781 35.2651 15.1068 36.3907C12.9985 38.1194 10.6073 40.0806 9.28821 42.3551C7.52587 45.3919 7.81059 50.3291 10.8271 52.3906C12.5354 53.5573 15.0942 53.8973 17.3466 53.2567C19.6496 52.6017 23.5833 48.5718 24.9041 47.074C25.1798 46.7608 25.661 46.7286 25.9763 47.0042C26.2917 47.278 26.3241 47.7558 26.0466 48.0689C25.8412 48.3016 20.9686 53.7953 17.7647 54.7079C16.8817 54.9585 15.9555 55.082 15.0383 55.082L15.0401 55.0802Z" fill="black"/>
<path d="M80.4311 14.982C76.4469 7.45535 68.5507 2.31414 59.8615 1.88645C53.7276 1.58403 47.4405 3.55426 42.8058 7.5663C36.3331 13.1674 33.4482 22.5282 35.8178 30.683C38.1874 38.8377 45.7142 45.831 54.3168 46.3464C61.9212 46.8009 70.3454 45.6968 75.8433 39.9919C77.8615 37.8982 79.0904 35.4376 80.2167 32.8232C81.4816 29.8884 82.7358 26.8696 82.7863 23.6306C82.8277 21.0143 82.0727 18.4339 80.9645 16.0574C80.7951 15.6942 80.6167 15.3363 80.4293 14.982H80.4311Z" fill="black"/>
<path d="M54.322 47.0977C45.7409 46.5859 37.6735 39.7698 35.0931 30.8903C33.902 26.7941 33.9668 22.0466 35.2715 17.5264C36.5869 12.9703 39.0862 8.92428 42.3118 6.13446C42.8884 5.6352 43.5011 5.15919 44.1318 4.7154C44.4742 4.47561 44.9481 4.55613 45.1895 4.89614C45.431 5.23614 45.3499 5.70678 45.0075 5.94657C44.4183 6.35994 43.8471 6.80552 43.3083 7.27079C37.1599 12.5927 34.2551 22.5656 36.5509 30.4716C38.9583 38.7587 46.4509 45.1185 54.3652 45.591C54.7833 45.616 55.1022 45.9739 55.077 46.3891C55.0518 46.7899 54.7184 47.0977 54.3202 47.0977H54.322Z" fill="#FF8312"/>
<path d="M68.0496 49.1949C77.1099 49.1949 83.0168 44.3328 83.0168 29.6948C83.0168 28.256 82.5951 25.4984 82.5951 25.4984C75.7062 21.7691 70.2282 13.2046 70.2282 13.2046C70.2282 13.2046 68.601 23.6552 52.6463 29.693C52.6463 29.693 55.1168 42.1174 51.7939 51.0953C51.7939 51.0953 58.4829 56.9541 64.6673 56.9541C68.1018 56.9541 68.1018 51.7288 68.1018 51.7288L68.0478 49.1931L68.0496 49.1949Z" fill="#FFCC00"/>
<path d="M82.595 25.4996C82.5824 25.4329 82.5662 25.3681 82.5518 25.3032C82.5662 25.3681 82.5806 25.4347 82.5932 25.4996H82.595Z" fill="white"/>
<path d="M57.8857 38.3288C57.8857 41.2618 60.2806 43.64 63.234 43.64C66.1874 43.64 68.5823 41.2618 68.5823 38.3288C68.5823 35.3958 66.1874 33.0176 63.234 33.0176C60.2806 33.0176 57.8857 35.3958 57.8857 38.3288Z" fill="#FFF24A"/>
<path d="M79.2041 38.3296C79.2041 39.797 79.8024 41.1248 80.7718 42.0875C81.8782 39.8131 82.6026 36.9141 82.8837 33.2832C80.7466 33.9793 79.2041 35.9746 79.2041 38.3296V38.3296Z" fill="#FFC950"/>
<path d="M45.1963 34.5261C45.1963 37.6577 47.7533 40.197 50.9068 40.197C54.0602 40.197 56.6172 37.6577 56.6172 34.5261C56.6172 31.3945 54.0602 28.8552 50.9068 28.8552C47.7533 28.8552 45.1963 31.3945 45.1963 34.5261Z" fill="#FFCC00"/>
<path d="M55.0757 35.2795C54.6559 35.2795 54.3171 34.9413 54.3171 34.5261C54.3171 32.6579 52.7872 31.1386 50.9059 31.1386C49.0247 31.1386 47.4948 32.6579 47.4948 34.5261C47.4948 34.943 47.1542 35.2795 46.7362 35.2795C46.3181 35.2795 45.9775 34.9413 45.9775 34.5261C45.9775 31.8275 48.1886 29.6318 50.9059 29.6318C53.6233 29.6318 55.8344 31.8275 55.8344 34.5261C55.8344 34.943 55.4938 35.2795 55.0757 35.2795V35.2795Z" fill="black"/>
<path d="M68.2202 50.664C68.2076 50.664 64.2 50.6014 64.2 50.6014C63.7802 50.5942 63.4468 50.2524 63.4522 49.8355C63.4594 49.4185 63.8072 49.0875 64.2235 49.0928L68.2311 49.1555C68.6509 49.1626 68.9843 49.5044 68.9789 49.9214C68.9717 50.333 68.6329 50.664 68.2202 50.664Z" fill="black"/>
<path d="M75.1217 35.8391C74.9649 35.8391 74.8081 35.7907 74.6712 35.6923C74.3342 35.4454 74.2621 34.9747 74.509 34.6383C75.0784 33.867 75.4298 32.9454 75.3181 32.7343C74.6099 31.7447 73.0008 29.0086 72.9323 28.8922C72.7215 28.5326 72.844 28.0709 73.2062 27.8615C73.5684 27.6521 74.0333 27.7738 74.2441 28.1335C74.2603 28.1621 75.8857 30.9269 76.5579 31.8646C77.421 33.0707 76.1434 34.9783 75.7326 35.5348C75.583 35.7353 75.3541 35.8426 75.1199 35.8426L75.1217 35.8391Z" fill="black"/>
<path d="M75.6643 26.9715C75.5129 26.9715 75.3616 26.9268 75.23 26.8355C74.8877 26.5975 74.803 26.1304 75.0426 25.7904C75.0859 25.7278 76.1274 24.2676 77.8663 24.0296C78.9781 23.8775 80.0846 24.2479 81.1585 25.1283C81.4811 25.3932 81.5279 25.8692 81.2595 26.1895C80.9928 26.5116 80.5134 26.5563 80.1909 26.2915C79.4629 25.6938 78.7529 25.4343 78.0844 25.522C77.0104 25.6634 76.295 26.644 76.2878 26.653C76.14 26.8606 75.904 26.9715 75.6661 26.9715H75.6643Z" fill="black"/>
<path d="M81.5112 24.1758C81.4517 24.1758 81.3904 24.1686 81.3292 24.1543C75.1754 22.6458 72.2616 19.6949 70.9011 17.4867C69.3947 15.0404 69.3965 12.9449 69.3965 12.8573C69.4001 12.4403 69.7425 12.1021 70.1623 12.1092C70.5804 12.1128 70.9174 12.4528 70.9156 12.868C70.9156 12.9038 70.9372 14.6986 72.2454 16.778C73.9951 19.5607 77.2621 21.6043 81.6932 22.6905C82.1004 22.7907 82.3491 23.1987 82.2482 23.6031C82.1635 23.9467 81.8517 24.1758 81.5112 24.1758V24.1758Z" fill="black"/>
<path d="M61.7284 27.6205C61.577 27.6205 61.4257 27.5757 61.2923 27.4827C60.9499 27.2429 60.867 26.7758 61.1067 26.4358C61.1698 26.3446 62.6906 24.2204 65.1125 24.0182C66.6586 23.8894 68.1723 24.5622 69.612 26.0153C69.9058 26.3124 69.9022 26.7901 69.603 27.0818C69.3039 27.3735 68.8228 27.3699 68.529 27.0729C67.4244 25.958 66.3216 25.4337 65.2495 25.5214C63.543 25.6574 62.3627 27.2858 62.3501 27.3019C62.2023 27.5095 61.9663 27.6205 61.7284 27.6205V27.6205Z" fill="black"/>
<path d="M63.249 30.5515C63.2887 30.1167 63.4815 29.6961 63.7464 29.3525C64.114 28.8748 64.8078 28.9893 65.1519 29.4098C65.8187 30.224 65.8187 31.4498 65.1754 32.2766C65.0456 32.443 64.7897 32.5808 64.5771 32.5897C64.159 32.6094 63.7968 32.3804 63.5788 32.0332C63.3121 31.6091 63.204 31.0454 63.2508 30.5497L63.249 30.5515Z" fill="black"/>
<path d="M75.4346 30.5515C75.4742 30.1167 75.667 29.6961 75.9319 29.3525C76.2995 28.8748 76.9933 28.9893 77.3375 29.4098C78.0042 30.224 78.0042 31.4498 77.3609 32.2766C77.2312 32.443 76.9753 32.5808 76.7626 32.5897C76.3446 32.6094 75.9824 32.3804 75.7644 32.0332C75.4977 31.6091 75.3895 31.0454 75.4364 30.5497L75.4346 30.5515Z" fill="black"/>
<path d="M42.5282 97.3267L43.0345 89.8574C43.0345 89.8574 43.3499 77.4884 41.8146 68.3351C40.3027 59.3251 37.2178 53.7812 37.1943 53.7114C40.901 51.7913 46.9575 50.102 50.9182 51.1256C50.9362 51.1471 54.1005 54.1731 55.8015 70.309C58.0072 91.221 42.5282 97.3267 42.5282 97.3267V97.3267Z" fill="black"/>
<path fill-rule="evenodd" clip-rule="evenodd" d="M41.7628 85.3602L39.3535 74.3405C39.4184 70.3893 41.0762 66.0695 42.4187 64.4679C43.9089 62.6891 49.8735 62.265 54.5838 63.3548C58.3319 64.2209 59.8654 64.5556 59.3482 66.5598C59.105 67.5046 58.3409 68.5569 56.1353 68.1507C58.5518 68.8486 59.2167 69.3747 59.1843 70.6291C59.1374 72.4794 57.8941 72.7031 56.2506 72.8159C56.2506 72.8159 58.4797 73.0342 58.4364 74.9829C58.4004 76.5809 56.7606 78.0412 55.3605 77.6242C55.3605 77.6242 56.0326 78.8429 56.0272 79.1059C56.002 80.1474 55.3334 81.1853 52.7963 81.1907C48.6805 81.1996 48.3075 81.0135 48.3075 81.0135C48.3075 81.0135 49.4013 87.751 43.0638 90.0039L41.7664 85.362L41.7628 85.3602Z" fill="#FFCC00"/>
<path d="M57.3902 69.0707C57.3559 69.0707 57.3217 69.0689 57.2875 69.0636L48.5695 67.8914C48.1533 67.836 47.8631 67.4548 47.919 67.0432C47.9749 66.6299 48.3587 66.3417 48.7731 66.3972L57.4911 67.5693C57.9074 67.6248 58.1975 68.0042 58.1416 68.4176C58.0894 68.7969 57.765 69.0707 57.3902 69.0707V69.0707Z" fill="black"/>
<path d="M57.1426 73.8448C57.1138 73.8448 57.085 73.8448 57.0561 73.8394L48.3238 72.8552C47.9075 72.8087 47.6084 72.4347 47.6552 72.0213C47.7021 71.6079 48.0805 71.3091 48.4949 71.3574L57.2273 72.3416C57.6436 72.3882 57.9427 72.7622 57.8959 73.1755C57.8526 73.5603 57.5228 73.8448 57.1426 73.8448V73.8448Z" fill="black"/>
<path d="M56.1794 78.5714C56.1452 78.5714 56.1109 78.5696 56.0749 78.5642L48.0056 77.4601C47.5894 77.4028 47.2992 77.0234 47.3569 76.6101C47.4146 76.1967 47.7966 75.9104 48.2129 75.9659L56.2821 77.07C56.6984 77.1272 56.9885 77.5066 56.9308 77.92C56.8786 78.2976 56.5524 78.5714 56.1794 78.5714Z" fill="black"/>
<path d="M49.1811 82.5319C49.1234 82.5319 49.064 82.5247 49.0045 82.5104L47.1809 82.081C46.7737 81.9843 46.5214 81.5781 46.6169 81.1737C46.7142 80.7693 47.1232 80.5187 47.5305 80.6136L49.3541 81.043C49.7613 81.1397 50.0136 81.5459 49.9181 81.9503C49.8352 82.2975 49.5235 82.5301 49.1793 82.5301L49.1811 82.5319Z" fill="black"/>
<path d="M80.7499 97.5056L78.7966 92.1192C78.7966 92.1192 74.1475 78.002 72.6122 68.8487C71.1003 59.8386 68.6857 51.0182 68.9236 51.1256C72.6302 49.2055 82.105 52.3639 82.105 52.3639C82.105 52.3639 84.9918 54.2125 87.0424 70.3089C88.3867 80.8526 80.7499 97.5056 80.7499 97.5056V97.5056Z" fill="black"/>
<path fill-rule="evenodd" clip-rule="evenodd" d="M90.446 64.4667C88.9558 62.6879 82.9912 62.2638 78.2809 63.3536C74.5328 64.2197 72.9993 64.5543 73.5164 66.5586C73.7597 67.5034 74.5237 68.5556 76.7294 68.1494C74.3129 68.8473 73.648 69.3734 73.6804 70.6279C73.7273 72.4782 74.9706 72.7019 76.614 72.8146C76.614 72.8146 74.385 73.0329 74.4282 74.9817C74.4643 76.5797 76.1041 78.0399 77.5042 77.623C77.5042 77.623 76.8321 78.8416 76.8375 79.1047C76.8627 80.1462 77.5312 81.1841 80.0684 81.1895C84.1841 81.1984 84.5572 81.0123 84.5572 81.0123C84.5572 81.0123 84.085 83.9202 85.5591 86.5544L93.5094 74.3411C93.4445 70.3899 91.7867 66.07 90.4442 64.4684L90.446 64.4667Z" fill="#FFCC00"/>
<path d="M74.2949 69.2795C73.9219 69.2795 73.5975 69.0075 73.5435 68.6299C73.4858 68.2183 73.7741 67.8353 74.1904 67.7781L84.0868 66.3966C84.5013 66.3375 84.8869 66.6256 84.9446 67.039C85.0022 67.4506 84.7139 67.8336 84.2977 67.8908L74.4012 69.2723C74.3652 69.2777 74.3291 69.2795 74.2949 69.2795Z" fill="black"/>
<path d="M74.7836 73.8591C74.3997 73.8591 74.07 73.571 74.0285 73.1827C73.9853 72.7676 74.288 72.3971 74.7061 72.3542L84.3773 71.3556C84.7953 71.3127 85.1683 71.6133 85.2116 72.0285C85.2548 72.4437 84.9521 72.8141 84.534 72.857L74.8628 73.8556C74.8358 73.8591 74.8088 73.8591 74.7836 73.8591Z" fill="black"/>
<path d="M76.1922 79.0316C75.8336 79.0316 75.5129 78.7775 75.4462 78.4142C75.3705 78.0044 75.6426 77.6107 76.0553 77.5356L84.6165 75.9715C85.0291 75.8964 85.4256 76.1666 85.5013 76.5764C85.5769 76.9862 85.3048 77.3799 84.8922 77.455L76.331 79.019C76.2841 79.028 76.2391 79.0316 76.1922 79.0316V79.0316Z" fill="black"/>
<path d="M83.4086 82.5313C83.0554 82.5313 82.74 82.2862 82.6662 81.9301C82.5815 81.5221 82.8464 81.123 83.2572 81.0389L85.3565 80.6094C85.7674 80.5253 86.1692 80.7884 86.2539 81.1964C86.3386 81.6044 86.0737 82.0034 85.6629 82.0875L83.5635 82.517C83.5113 82.5277 83.4608 82.5331 83.4086 82.5331V82.5313Z" fill="black"/>
<path d="M77.6559 35.7646C77.4181 35.8219 77.182 35.9364 76.9658 35.9954C76.5495 36.1118 76.1225 36.1959 75.6936 36.2496C74.616 36.382 73.506 36.2979 72.4518 36.0491C72.0085 35.9453 71.3905 35.8612 71.0967 36.3014C70.7345 36.8455 71.0913 37.5935 71.4427 38.0462C72.5527 39.476 74.7205 40.1041 76.418 39.4241C76.836 39.2559 77.2163 39.0054 77.528 38.6797C77.9839 38.2037 79.3372 36.033 78.0884 35.7467C77.9479 35.7145 77.8019 35.7288 77.6541 35.7646H77.6559Z" fill="white"/>
<path d="M43.5393 92.5509C43.1951 92.5509 42.8833 92.3183 42.8004 91.9711L38.7748 75.1821C37.5837 75.3807 34.8591 75.9802 31.6534 77.6319C27.6963 79.6701 22.1678 83.7842 18.2954 91.8011C18.1134 92.1769 17.6611 92.3344 17.2827 92.1554C16.9042 91.9747 16.7457 91.5255 16.9259 91.1497C20.9965 82.7248 26.8385 78.4014 31.0227 76.2593C35.5763 73.9276 39.1406 73.6037 39.2902 73.5912C39.6668 73.559 40.0056 73.8042 40.0939 74.1674L44.2799 91.6239C44.3772 92.0284 44.1249 92.4364 43.7177 92.533C43.6582 92.5473 43.5987 92.5545 43.5411 92.5545L43.5393 92.5509Z" fill="black"/>
<path d="M82.5212 91.6897C82.3825 91.6897 82.2401 91.6521 82.114 91.5715C81.7608 91.3479 81.6563 90.8808 81.8815 90.5301L92.8033 73.5084C92.9889 73.2203 93.3457 73.0915 93.6719 73.1953C93.7602 73.2221 95.8577 73.8914 98.5949 75.6057C101.114 77.1858 104.677 79.9953 107.331 84.4082C107.545 84.7661 107.428 85.2296 107.068 85.4425C106.707 85.6555 106.241 85.5392 106.026 85.1813C101.977 78.4492 95.6342 75.5663 93.7548 74.8309L83.1627 91.3407C83.0186 91.5662 82.7717 91.6897 82.5212 91.6897V91.6897Z" fill="black"/>
<path d="M9.90843 82.2092C9.80031 82.2092 9.69039 82.1859 9.58587 82.1376C9.20565 81.9604 9.04348 81.5113 9.22187 81.1337C10.5463 78.3385 12.9826 78.0575 13.0853 78.0468C13.5034 78.0039 13.8764 78.3045 13.9196 78.7197C13.9629 79.1312 13.6619 79.5017 13.2493 79.5464C13.1664 79.5571 11.5392 79.788 10.5968 81.7761C10.467 82.0499 10.1949 82.2092 9.90843 82.2092Z" fill="black"/>
<path d="M104.797 35.7398C104.701 35.7398 104.604 35.7219 104.51 35.6843L102.919 35.0383C102.532 34.8809 102.344 34.4406 102.503 34.0541C102.661 33.6694 103.105 33.4833 103.494 33.6407L105.085 34.2867C105.472 34.4442 105.66 34.8844 105.499 35.271C105.379 35.5626 105.096 35.7398 104.797 35.7398Z" fill="black"/>
<path d="M102.627 40.3349C102.535 40.3349 102.442 40.3188 102.35 40.283L100.324 39.492C99.9334 39.3399 99.7424 38.9015 99.8956 38.515C100.049 38.1267 100.49 37.937 100.879 38.0891L102.905 38.8783C103.296 39.0304 103.487 39.4688 103.334 39.8553C103.217 40.1524 102.93 40.3331 102.627 40.3331V40.3349Z" fill="black"/>
<path d="M100.458 45.184C100.372 45.184 100.283 45.1697 100.197 45.1375L98.0272 44.3466C97.6325 44.2034 97.4307 43.7703 97.5749 43.3784C97.719 42.9865 98.1551 42.7861 98.5497 42.9293L100.719 43.7202C101.114 43.8634 101.316 44.2964 101.172 44.6883C101.058 44.9943 100.768 45.1822 100.458 45.1822V45.184Z" fill="black"/>
<path d="M98.1466 49.8159C98.0151 49.8159 97.8817 49.7819 97.761 49.7103L96.1698 48.7762C95.8094 48.565 95.6887 48.1016 95.9031 47.7437C96.1158 47.3858 96.5825 47.2659 96.9429 47.4788L98.534 48.4129C98.8944 48.6241 99.0151 49.0876 98.8007 49.4455C98.6583 49.6835 98.4061 49.8159 98.1466 49.8159Z" fill="black"/>
<path d="M96.0114 54.3058C95.8889 54.3058 95.7646 54.2754 95.6492 54.2127L94.0581 53.3502C93.6905 53.1516 93.5535 52.6934 93.7554 52.3266C93.9554 51.9615 94.4167 51.8255 94.7861 52.026L96.3772 52.8885C96.7448 53.0871 96.8818 53.5452 96.68 53.9121C96.543 54.1626 96.2817 54.3058 96.0133 54.3058H96.0114Z" fill="black"/>
<path d="M93.6987 59.2966C93.5275 59.2966 93.3545 59.2393 93.2121 59.1212L91.9111 58.044C91.5886 57.7773 91.5453 57.3013 91.8138 56.981C92.0823 56.6607 92.5616 56.6177 92.8842 56.8844L94.1852 57.9616C94.5078 58.2283 94.551 58.7043 94.2825 59.0246C94.133 59.2036 93.9167 59.2966 93.6987 59.2966V59.2966Z" fill="black"/>
<path d="M94.5565 32.1372C94.4431 32.2412 94.4345 32.4151 94.5368 32.5265C94.6416 32.6354 94.8104 32.6538 94.93 32.5546C95.0471 32.4567 95.0644 32.2743 94.9559 32.1604C94.8487 32.0441 94.6699 32.0331 94.5577 32.1372H94.5565Z" fill="#FF5D00"/>
<path d="M86.3173 32.4017C86.2495 32.5388 86.3025 32.7065 86.4381 32.7763C86.5737 32.8461 86.7426 32.7934 86.8165 32.6588C86.8905 32.5241 86.8362 32.3564 86.6957 32.2854C86.5552 32.2119 86.3863 32.2646 86.3173 32.4017V32.4017Z" fill="#FF5D00"/>
<path d="M78.6024 19.4838C78.595 19.5597 78.6197 19.632 78.6653 19.6858C78.6875 19.7128 78.7158 19.7348 78.7479 19.7519C78.7787 19.7678 78.8144 19.7801 78.8526 19.785C79.003 19.8046 79.1423 19.6981 79.1608 19.5463C79.1805 19.3945 79.0696 19.2549 78.913 19.2341C78.8736 19.2292 78.8354 19.2341 78.7996 19.2439C78.7639 19.2549 78.7318 19.2733 78.7035 19.2953C78.648 19.3406 78.6098 19.4079 78.6024 19.4826V19.4838Z" fill="#FF5D00"/>
<path d="M95.919 40.9305C95.8056 41.026 95.7427 41.157 95.7279 41.2917C95.7205 41.359 95.7267 41.4263 95.7452 41.4912C95.755 41.523 95.7674 41.5549 95.7821 41.5855C95.7908 41.6002 95.7994 41.6149 95.8093 41.6295C95.8179 41.6442 95.8278 41.6589 95.8389 41.6736C95.9239 41.7875 96.0496 41.8548 96.1852 41.8744C96.3196 41.894 96.4651 41.8634 96.5846 41.7789C96.7055 41.6944 96.777 41.5683 96.7942 41.4312C96.8127 41.2941 96.7757 41.146 96.682 41.0223C96.6697 41.0064 96.6574 40.9917 96.6451 40.9783C96.6315 40.9648 96.6179 40.9526 96.6031 40.9403C96.5748 40.9158 96.544 40.8963 96.5119 40.8791C96.4478 40.8448 96.38 40.8228 96.3098 40.8142C96.1717 40.7983 96.0299 40.8375 95.9177 40.9318L95.919 40.9305Z" fill="#FF5D00"/>
<path d="M87.949 31.4822C87.9169 31.5483 87.8997 31.6168 87.896 31.6854C87.8923 31.7552 87.9009 31.8237 87.9218 31.8886C87.9625 32.0184 88.0501 32.131 88.1783 32.1959C88.2103 32.213 88.2424 32.2252 88.2769 32.235C88.3102 32.2436 88.3447 32.2497 88.378 32.2546C88.4445 32.262 88.5136 32.2571 88.5777 32.2387C88.7083 32.2032 88.8279 32.1187 88.9019 31.9926C88.9771 31.8666 88.9919 31.7209 88.9524 31.5874C88.9327 31.5213 88.8994 31.4565 88.855 31.4001C88.8328 31.3708 88.8069 31.3451 88.7774 31.3218C88.7478 31.2985 88.717 31.2777 88.6812 31.2606C88.5431 31.1896 88.3903 31.1773 88.2584 31.2177C88.1918 31.2373 88.1302 31.2704 88.0784 31.3145C88.0254 31.3597 87.9798 31.4161 87.949 31.4822Z" fill="#FF5D00"/>
<path d="M82.6008 30.1824C82.5958 30.3281 82.6525 30.4628 82.7425 30.5619C82.7881 30.6121 82.8424 30.6525 82.9028 30.6807C82.9632 30.7101 83.031 30.7321 83.1025 30.737C83.2455 30.7492 83.3786 30.7003 83.4846 30.6121C83.5894 30.5228 83.6634 30.4028 83.6794 30.2559C83.6954 30.1114 83.651 29.967 83.5598 29.8654C83.4686 29.7613 83.3342 29.6903 83.1789 29.6781C83.1012 29.6719 83.0261 29.6793 82.9583 29.7038C82.8892 29.7283 82.8276 29.765 82.7746 29.8115C82.6698 29.9033 82.6045 30.0343 82.6008 30.1812V30.1824Z" fill="#FF5D00"/>
<path d="M83.5341 39.4955C83.4194 39.6803 83.3898 39.8958 83.4256 40.088C83.4441 40.1859 83.4798 40.2777 83.5316 40.3585C83.5809 40.443 83.6475 40.5177 83.7301 40.5777C83.7708 40.607 83.8151 40.6328 83.8607 40.6523C83.9064 40.6719 83.9507 40.6915 83.9988 40.7025C84.0937 40.727 84.1923 40.7344 84.2922 40.7221C84.3908 40.7099 84.4907 40.6817 84.5806 40.6376C84.6719 40.5924 84.7569 40.5299 84.8284 40.4479C84.8999 40.3659 84.9517 40.2728 84.9825 40.1749C85.0133 40.0757 85.0207 39.9717 85.0072 39.8689C84.9924 39.766 84.9579 39.6632 84.9012 39.5677C84.8728 39.52 84.8408 39.4722 84.8013 39.4306C84.7619 39.389 84.7175 39.351 84.6694 39.3155C84.572 39.2445 84.4672 39.1943 84.36 39.1674C84.2503 39.1441 84.1406 39.1417 84.037 39.1576C83.8299 39.1931 83.6487 39.3094 83.5341 39.4943V39.4955Z" fill="#FF5D00"/>
<path d="M78.7022 107.993C78.7959 107.87 78.9685 107.844 79.0905 107.935C79.2101 108.028 79.2446 108.193 79.1571 108.321C79.0696 108.445 78.8896 108.48 78.7651 108.384C78.6381 108.29 78.6098 108.115 78.7022 107.993V107.993Z" fill="#FFCC00"/>
<path d="M72.1431 111.284C72.1998 111.232 72.2725 111.208 72.3428 111.212C72.3785 111.213 72.413 111.221 72.4451 111.236C72.4784 111.249 72.5092 111.27 72.5363 111.297C72.6436 111.405 72.6411 111.58 72.5314 111.687C72.4217 111.794 72.2429 111.791 72.132 111.679C72.1049 111.651 72.0839 111.619 72.0703 111.585C72.058 111.551 72.0519 111.514 72.0543 111.477C72.0568 111.405 72.0876 111.335 72.1443 111.283L72.1431 111.284Z" fill="#FFCC00"/>
<path d="M78.1612 99.8248C78.2919 99.744 78.4657 99.7807 78.5483 99.9081C78.6309 100.035 78.5952 100.207 78.4682 100.294C78.3412 100.379 78.1674 100.343 78.0823 100.21C77.9961 100.079 78.0318 99.9068 78.1625 99.8248H78.1612Z" fill="#FFCC00"/>
<path d="M58.5335 107.216C58.6765 107.16 58.838 107.23 58.8947 107.37C58.9477 107.512 58.8898 107.671 58.7468 107.733C58.6062 107.794 58.4349 107.729 58.3794 107.582C58.3215 107.435 58.3905 107.272 58.5335 107.216Z" fill="#FFCC00"/>
<path d="M56.7895 95.88C56.8659 95.8653 56.9399 95.8837 56.9978 95.9229C57.0274 95.9425 57.052 95.9682 57.0718 95.9976C57.0915 96.0269 57.1063 96.0612 57.1149 96.0979C57.1494 96.2448 57.0557 96.393 56.9054 96.426C56.755 96.4603 56.6046 96.3636 56.5688 96.2106C56.559 96.1726 56.5602 96.1347 56.5688 96.0979C56.5762 96.0624 56.591 96.0282 56.6107 95.9976C56.6502 95.9376 56.7143 95.8935 56.7895 95.88Z" fill="#FFCC00"/>
<path d="M87.6457 108.482C87.7295 108.361 87.8553 108.285 87.9884 108.258C88.055 108.245 88.1228 108.244 88.1893 108.256C88.2226 108.262 88.2559 108.27 88.2879 108.284C88.304 108.29 88.32 108.299 88.3348 108.306C88.3508 108.313 88.3668 108.322 88.3816 108.33C88.5037 108.404 88.5838 108.521 88.6159 108.652C88.6479 108.783 88.6331 108.929 88.5591 109.056C88.4852 109.184 88.3668 109.267 88.2312 109.298C88.0956 109.328 87.9428 109.307 87.8097 109.228C87.7924 109.218 87.7764 109.207 87.7616 109.196C87.7468 109.184 87.7332 109.171 87.7197 109.158C87.6925 109.132 87.6691 109.104 87.6494 109.074C87.6087 109.014 87.5804 108.949 87.5656 108.88C87.536 108.745 87.5606 108.602 87.6445 108.481L87.6457 108.482Z" fill="#FFCC00"/>
<path d="M77.4016 101.526C77.4644 101.488 77.5323 101.465 77.6001 101.454C77.6691 101.443 77.7393 101.445 77.8059 101.459C77.9403 101.487 78.0611 101.563 78.1388 101.682C78.1585 101.711 78.1745 101.743 78.1868 101.775C78.1992 101.808 78.209 101.84 78.2164 101.873C78.2312 101.938 78.2324 102.006 78.2201 102.072C78.1967 102.204 78.1252 102.33 78.0056 102.417C77.886 102.503 77.7418 102.532 77.6037 102.507C77.5359 102.493 77.4681 102.468 77.4065 102.428C77.3757 102.409 77.3461 102.387 77.3215 102.36C77.2956 102.333 77.2721 102.304 77.2512 102.272C77.1661 102.142 77.139 101.993 77.1674 101.858C77.1809 101.791 77.208 101.727 77.2475 101.671C77.2869 101.614 77.3399 101.564 77.4028 101.526H77.4016Z" fill="#FFCC00"/>
<path d="M75.5756 96.3664C75.7223 96.348 75.8616 96.3896 75.9701 96.4704C76.0243 96.5108 76.0699 96.561 76.1057 96.6173C76.1414 96.6748 76.1698 96.7385 76.1821 96.8083C76.208 96.9478 76.1722 97.0849 76.0933 97.1976C76.0132 97.309 75.8998 97.3947 75.7556 97.4253C75.6126 97.4559 75.4634 97.4253 75.3525 97.3445C75.2391 97.2649 75.1552 97.1376 75.1281 96.9858C75.1146 96.9099 75.1146 96.8352 75.1318 96.7654C75.1503 96.6957 75.1811 96.6296 75.2218 96.5745C75.3044 96.4618 75.4289 96.3847 75.5756 96.3664V96.3664Z" fill="#FFCC00"/>
<path d="M85.0032 96.3825C85.177 96.2515 85.3902 96.2001 85.5875 96.2184C85.6873 96.227 85.7822 96.2527 85.8685 96.2968C85.9573 96.3384 86.0399 96.396 86.1077 96.4719C86.1422 96.5098 86.1705 96.5502 86.1952 96.5943C86.2198 96.6371 86.2433 96.68 86.2593 96.7253C86.2938 96.8158 86.3098 96.9138 86.3074 97.0129C86.3049 97.1121 86.2852 97.2125 86.2507 97.3067C86.2149 97.401 86.1594 97.4916 86.0855 97.5699C86.0103 97.6495 85.9228 97.7095 85.8266 97.7487C85.7292 97.7891 85.6269 97.8062 85.5221 97.8025C85.4173 97.7989 85.3113 97.7732 85.209 97.7279C85.1585 97.7046 85.1079 97.6777 85.0623 97.6422C85.0167 97.6067 84.9736 97.5675 84.9341 97.5234C84.854 97.4341 84.7936 97.3349 84.7554 97.2321C84.7209 97.1268 84.7073 97.0178 84.7147 96.9138C84.7295 96.7057 84.8293 96.5147 85.0019 96.3837L85.0032 96.3825Z" fill="#FFCC00"/>
</svg>
