<svg width="152" height="150" viewBox="0 0 152 150" fill="none" xmlns="http://www.w3.org/2000/svg">
<path fill-rule="evenodd" clip-rule="evenodd" d="M139.731 125.662C138.318 116.035 138.117 106.353 137.962 96.6426C137.931 94.6681 137.806 92.6304 137.072 90.7751C136.377 89.0156 135.171 87.5993 133.614 86.5352C129.947 84.0296 125.223 84.0784 120.965 83.8544C111.23 83.3395 101.495 82.8247 91.7611 82.3044C88.1033 82.1093 83.8745 81.6613 80.6288 83.7496C75.8253 86.8387 75.5073 94.7006 74.7501 99.7372C73.0206 111.257 73.055 122.911 72.5489 134.523C72.4785 135.878 72.4062 137.258 72.7514 138.57C73.4977 141.402 76.5663 142.624 79.0711 143.545C92.2002 148.37 107.287 148.139 121.075 148.132C125.427 148.13 130.33 148.401 134.553 147.16C138.03 146.139 140.268 142.625 140.887 139.195C141.699 134.697 140.381 130.099 139.731 125.662V125.662Z" fill="#E0B400"/>
<path fill-rule="evenodd" clip-rule="evenodd" d="M140.489 103.381C139.723 99.2369 138.778 95.1181 137.928 90.9884C137.538 89.088 137.243 87.1315 136.689 85.269C136.24 83.766 135.51 82.3696 134.233 81.4139C132.881 80.4023 131.197 80.0031 129.563 79.7158C127.575 79.3672 125.58 79.0583 123.585 78.7493C115.306 77.4667 106.957 76.4208 98.5698 76.2925C96.2964 76.2582 94.0193 76.2925 91.7477 76.4063C90.1158 76.4514 88.4858 76.4984 86.8539 76.5418C83.9515 76.6176 80.8179 76.5833 78.3059 78.2616C74.2036 81.0002 73.2585 86.4722 73.2422 91.0535C73.2422 91.4093 73.515 91.8411 73.8909 91.9061C87.1845 94.1859 100.641 95.3782 114.05 96.7458C117.831 97.1305 122.365 96.9083 125.929 98.2632C129.445 99.6 131.845 102.545 133.913 105.551C135.16 107.363 136.936 108.625 139.137 107.442C140.677 106.615 140.771 104.922 140.485 103.381H140.489Z" fill="#FFC257"/>
<path d="M136.472 101.314C135.971 101.314 135.509 100.987 135.359 100.482L130.714 84.7632C130.532 84.149 130.884 83.5041 131.498 83.3217C132.113 83.141 132.758 83.4915 132.941 84.1057L137.585 99.8241C137.768 100.438 137.415 101.083 136.801 101.266C136.691 101.298 136.58 101.314 136.472 101.314Z" fill="#E0B400"/>
<path d="M133.33 93.1886C129 86.2968 120.387 84.344 115.347 83.2944C114.803 83.1372 114.294 83.0379 113.829 83.0071C112.573 82.794 91.3425 81.4572 91.1365 81.7823C88.6624 81.6486 86.5263 81.4156 84.5746 79.8241C81.6216 77.416 79.791 73.8951 78.3489 70.4411C76.6501 66.3765 75.1555 62.2179 73.5761 58.1063L68.6714 45.3306C66.819 40.5037 64.9649 35.6785 63.1125 30.8515C62.8812 30.2481 62.2541 29.9193 61.6487 30.2553C57.7271 32.4286 53.9754 34.8909 50.4243 37.6259C48.731 38.9302 47.0467 40.2742 45.4762 41.7249C43.8769 43.2026 43.1089 44.8013 43.0167 46.9818C42.6589 55.4688 44.5636 64.028 47.5256 71.9387C50.5671 80.0625 54.7543 87.7059 59.3391 95.0511C60.4759 96.8721 61.6379 98.675 62.8162 100.469C63.9475 102.19 65.554 103.961 65.498 106.134C65.4383 108.499 64.8239 110.918 64.5022 113.261C64.1805 115.604 63.8878 117.95 63.633 120.302C62.4583 131.129 62.8125 139.114 63.1125 150H91.1365H118.447C115.759 142.214 115.756 129.438 115.954 128.307L118.447 125.727C126.188 141.816 136.132 148.927 145.249 143.998C155.6 138.402 153.218 124.849 133.334 93.1959L133.33 93.1886Z" fill="#00A6E3"/>
<path d="M89.308 93.5228C90.1267 93.707 91.0285 93.801 91.9899 93.801C95.6458 93.801 100.337 92.4876 105.938 89.9007C109.084 88.4465 110.499 84.3746 110.857 83.1625L110.974 82.765C108.845 82.6115 84.2606 79.5603 84.1088 79.4248L83.9624 80.3624C82.8203 87.7004 84.7684 92.4967 89.3062 93.5246L89.308 93.5228Z" fill="white"/>
<path d="M110.476 116.245C111.62 116.245 112.547 115.318 112.549 114.175C112.549 113.031 111.624 112.103 110.478 112.101C92.8635 112.083 72.5128 108.342 65.4521 106.929C65.3527 108.293 65.1015 109.669 64.8594 111.035C72.2688 112.509 92.6972 116.225 110.473 116.243H110.474L110.476 116.245Z" fill="white"/>
<path d="M115.953 128.302C115.991 128.345 116.03 128.392 116.07 128.437C116.003 127.238 115.969 126.273 115.963 125.637C115.752 125.567 115.526 125.527 115.289 125.531C94.1906 125.724 72.5532 121.826 63.6601 120.008C63.6492 120.106 63.6384 120.203 63.6276 120.299C63.492 121.555 63.3655 122.843 63.248 124.151C70.8111 125.683 86.4775 128.492 103.411 129.395C107.343 129.604 111.346 129.711 115.329 129.673C115.562 129.671 115.785 129.63 115.992 129.556C115.942 128.887 115.927 128.448 115.953 128.302V128.302Z" fill="white"/>
<path d="M122.137 132.456C122.137 132.456 119.679 128.28 119.258 126.829C119.258 126.829 117.194 113.345 119.009 99.9592C119.777 94.2977 121.946 89.6983 123.343 87.2613C123.787 86.4863 124.732 86.1738 125.562 86.5044C124.759 82.671 113.466 80.7868 111.182 82.6674C111.164 82.6873 107.925 85.4566 105.354 101.088C103.097 114.803 109.536 130.265 113.633 133.717C115.588 135.365 122.137 132.458 122.137 132.458V132.456Z" fill="#421F33"/>
<path d="M63.6291 120.297C63.6291 120.297 63.9942 115.233 66.5622 108.015C68.326 103.057 71.3458 96.9208 76.4456 89.431C81.4642 82.0568 84.5255 79.4735 84.5743 79.4211C83.3563 75.8786 81.6322 73.83 79.9172 73.0568C79.8937 73.0695 73.0825 72.3198 64.9809 85.9336C57.8715 97.8782 57.7973 113.313 60.3527 118.023C61.5707 120.27 63.6309 120.295 63.6309 120.295L63.6291 120.297Z" fill="#421F33"/>
<path d="M71.3315 82.4889C70.8598 78.2888 69.6815 74.2946 68.3948 70.2842C67.0828 66.1942 65.8069 62.07 65.6588 57.7452C65.4672 52.1577 67.1009 46.8032 68.9279 41.5896C70.0375 38.421 74.6965 29.3234 67.831 29.2114C57.5481 29.0434 26.5929 28.5412 25.3008 28.5828C23.8497 28.6279 22.5141 29.4499 21.8889 30.7596C19.3552 36.0635 17.8173 39.0081 16.8956 43.4611C15.6451 49.5075 17.2589 54.8259 18.9215 60.632C21.8202 70.7647 22.5575 81.0184 18.6902 90.9867C16.6878 96.1479 13.6156 100.879 9.68859 104.783C9.12475 105.345 9.58016 106.198 10.2994 106.257C25.6297 107.511 63.0419 107.404 66.172 107.408C67.9882 107.41 69.5207 106.067 69.7574 104.268C70.4929 98.677 71.8592 87.1786 71.3315 82.4871V82.4889Z" fill="white"/>
<path d="M9.68808 105.944C9.38989 105.944 9.09172 105.831 8.86582 105.603C8.41403 105.148 8.41582 104.414 8.87123 103.963C12.6446 100.212 15.6644 95.5804 17.6089 90.5692C20.9667 81.9106 21.0317 72.2223 17.8059 60.9515L17.6595 60.4421C16.0277 54.7516 14.4879 49.3754 15.7602 43.2261C16.624 39.053 18.03 36.1247 20.1571 31.6915C20.3776 31.2327 20.6052 30.7557 20.8438 30.2589C21.6516 28.5699 23.3449 27.4823 25.2678 27.4227C26.5581 27.3794 55.4784 27.8491 67.8539 28.0514C69.484 28.0785 70.731 28.5554 71.5605 29.4695C72.4135 30.4089 72.7767 31.762 72.6375 33.4908C72.5869 34.1303 72.0285 34.6072 71.387 34.5548C70.7472 34.5042 70.2719 33.9442 70.3225 33.3047C70.4075 32.2407 70.2467 31.4747 69.8418 31.0285C69.4605 30.6076 68.7774 30.3872 67.816 30.371C47.9479 30.0458 26.3539 29.7116 25.3419 29.7405C24.3082 29.773 23.3648 30.3692 22.9401 31.258C22.7016 31.7565 22.4721 32.2335 22.2516 32.6941C20.1245 37.1237 18.8415 39.7991 18.0355 43.6939C16.8789 49.2833 18.2758 54.1572 19.8932 59.8007L20.0396 60.312C23.4082 72.0868 23.3233 82.2592 19.7758 91.4056C17.7156 96.7167 14.5114 101.627 10.5104 105.605C10.2845 105.831 9.98807 105.943 9.6917 105.943L9.68808 105.944Z" fill="#F29D7E"/>
<path d="M56.797 25.3828C56.0361 24.6097 54.6139 24.4742 53.535 24.4127C52.9495 24.3802 52.3115 24.7054 51.7531 24.5789C51.1748 24.4489 50.6598 24.0009 50.0743 23.8401C48.999 23.542 47.8261 23.645 46.8141 24.1056C46.5918 24.2068 46.3135 24.4489 46.0786 24.5067C45.8527 24.5627 45.6141 24.4705 45.39 24.4326C44.7629 24.326 44.1232 24.2502 43.4871 24.2971C42.2329 24.3874 40.5938 25.1155 40.5938 25.1155C40.5938 25.1155 38.136 26.4306 37.0156 27.2146C36.1011 27.8541 35.0403 29.4059 34.397 30.3525C33.6868 31.3967 33.9831 32.6902 34.968 33.4344C35.8156 34.0757 36.8547 34.1805 37.8396 33.9529C37.9227 34.3287 37.9011 34.7983 38.0348 35.1127C38.277 35.6799 38.7378 36.0593 39.2185 36.4242C39.9685 36.9933 41.3492 37.4774 42.0666 36.538C42.0865 36.5236 42.101 36.5109 42.1172 36.5001C42.2022 36.5705 42.2871 36.641 42.3757 36.706C42.6196 36.8794 42.8781 37.0185 43.16 37.1251C43.6552 37.3148 44.1864 37.3979 44.7159 37.3546C45.2671 37.3094 45.8129 37.1305 46.281 36.8379C46.4744 36.7169 46.6641 36.5723 46.834 36.4152C47.4032 37.1233 48.4767 37.4557 49.3098 37.3925C50.4447 37.3094 51.6682 37.0222 52.4525 36.1478C53.2603 35.2464 53.873 34.092 54.4133 33.0153C54.8506 32.1428 55.2301 31.2468 55.5337 30.3218C55.7018 29.8106 56.2132 29.4926 56.7463 29.5595C57.4692 29.6498 59.0035 29.5703 59.0035 29.5703C59.0035 29.5703 58.2337 26.8407 56.797 25.381V25.3828Z" fill="#FFCC00"/>
<path d="M49.1171 38.5616C48.3779 38.5616 47.5087 38.3557 46.7786 37.895C46.1822 38.2437 45.5045 38.4569 44.8105 38.5129C44.1184 38.5707 43.4028 38.4641 42.7413 38.2094C42.5389 38.1317 42.3474 38.0432 42.163 37.942C41.0462 38.5147 39.5733 38.1516 38.5179 37.3495C37.9541 36.9213 37.3216 36.3956 36.9692 35.5701C36.9204 35.4545 36.8824 35.3388 36.8553 35.2232C35.8975 35.2124 35.0084 34.9197 34.2693 34.3615C32.7657 33.2234 32.4079 31.22 33.438 29.7025C34.9379 27.495 35.3175 27.1951 35.4403 27.0976C35.9427 26.7001 36.6728 26.7868 37.0704 27.289C37.4607 27.784 37.3848 28.4976 36.9041 28.8986C36.7053 29.0956 36.0313 30.0151 35.359 31.0068C34.965 31.5867 35.2325 32.1811 35.6698 32.5117C36.3005 32.9886 37.0559 32.9452 37.5782 32.8242C37.88 32.7537 38.1963 32.8079 38.4583 32.9723C38.7204 33.1367 38.9065 33.4005 38.9733 33.7021C39.0221 33.9207 39.042 34.1321 39.0619 34.32C39.0727 34.4338 39.0908 34.6036 39.1071 34.6668C39.2282 34.9396 39.4866 35.1708 39.9203 35.4996C40.3667 35.8392 41.0064 36.0127 41.1438 35.8338C41.2106 35.7471 41.2884 35.6694 41.3769 35.6044C41.8269 35.2503 42.4341 35.2557 42.857 35.6044C42.9238 35.6604 42.9907 35.7164 43.0612 35.7688C43.2202 35.8808 43.3883 35.9693 43.5762 36.0416C43.9142 36.1716 44.2756 36.2258 44.6208 36.1969C44.9876 36.1662 45.3581 36.0452 45.6653 35.8519C45.7973 35.7688 45.9274 35.6694 46.0431 35.5628C46.2798 35.3443 46.5961 35.2323 46.9177 35.2557C47.2394 35.2792 47.5358 35.4346 47.7382 35.6857C48.0129 36.0271 48.6815 36.2746 49.2237 36.2331C50.3694 36.1482 51.1429 35.8663 51.5875 35.3696C52.3067 34.5675 52.8887 33.4637 53.3766 32.4918C53.8049 31.6409 54.1591 30.7882 54.432 29.9573C54.7717 28.9221 55.8054 28.2682 56.8934 28.4055C57.347 28.4615 58.3933 28.438 58.9463 28.4091C59.5896 28.3766 60.1318 28.8679 60.1643 29.5074C60.1969 30.1469 59.7053 30.6925 59.0656 30.725C58.8993 30.7341 57.4355 30.8045 56.6277 30.7088C56.3205 31.6391 55.9247 32.5875 55.4512 33.5305C54.8964 34.6361 54.2278 35.9007 53.3169 36.9159C52.4531 37.8806 51.17 38.4135 49.3954 38.5436C49.305 38.5508 49.2128 38.5544 49.1171 38.5544V38.5616Z" fill="#FF7E33"/>
<path d="M38.0227 34.5781C37.8782 34.5781 37.73 34.551 37.5872 34.4932C36.9927 34.253 36.7071 33.5755 36.9475 32.9812L40.1806 25.0181C40.4227 24.4238 41.0986 24.1383 41.6931 24.3786C42.2877 24.6189 42.5732 25.2963 42.3329 25.8907L39.0999 33.8537C38.9173 34.3054 38.4818 34.5781 38.0246 34.5781H38.0227Z" fill="#FF7E33"/>
<path d="M47.7224 37.2253C47.6014 37.2253 47.4785 37.2073 47.3574 37.1657C46.7484 36.9652 46.4176 36.3076 46.6201 35.7006L49.8531 25.922C50.0537 25.3132 50.7115 24.9826 51.3187 25.185C51.9277 25.3855 52.2585 26.0431 52.0561 26.65L48.823 36.4287C48.6622 36.9164 48.2086 37.2253 47.7206 37.2253H47.7224Z" fill="#FF7E33"/>
<path d="M41.8726 36.8654C41.7281 36.8654 41.5835 36.8383 41.4407 36.7823C40.8462 36.5438 40.557 35.8682 40.7956 35.2739L44.7388 25.4392C44.9774 24.8449 45.6532 24.5559 46.2478 24.7943C46.8424 25.0328 47.1315 25.7084 46.893 26.3027L42.9497 36.1374C42.7672 36.5908 42.3317 36.8654 41.8726 36.8654Z" fill="#FF7E33"/>
<path d="M50.8201 94.3328C51.7201 93.4151 52.631 92.51 53.5508 91.6122C54.7435 92.1216 55.9435 92.613 57.1507 93.0845C57.0115 94.4538 56.8706 95.8232 56.7224 97.1907C56.6085 98.2385 58.2278 98.6016 58.3435 97.5394C58.7627 93.6789 59.1422 89.8129 59.4783 85.9452C59.556 85.0492 58.3814 84.6535 57.9838 85.2244C56.3393 86.6859 54.7508 88.1564 53.1912 89.6558C52.8713 89.5149 52.5496 89.3757 52.2316 89.233C51.2629 88.7977 50.4876 90.2645 51.4653 90.7017C51.6135 90.7686 51.7635 90.8318 51.9117 90.8986C51.1364 91.6592 50.3684 92.4269 49.6075 93.2019C48.8594 93.9661 50.0756 95.0934 50.822 94.3328H50.8201ZM57.6658 87.7336C57.5555 88.9494 57.4416 90.1652 57.3224 91.3792C56.4929 91.0504 55.6652 90.7126 54.8411 90.3657C55.7718 89.4769 56.7134 88.6008 57.664 87.7336H57.6658Z" fill="#E0B400"/>
<path d="M63.972 91.6044C63.4227 90.6866 62.0203 91.5718 62.5679 92.4859C64.2865 95.3565 63.1841 99.1664 60.0794 100.541C56.6403 102.064 52.9609 99.842 50.4598 97.5839C48.1773 95.5245 46.1297 92.6467 47.1038 89.4365C48.0219 86.407 50.7417 84.0911 53.7687 83.3396C57.3704 82.4436 61.3083 84.0658 63.4281 87.0592C64.0443 87.9281 65.4503 87.0484 64.8323 86.1776C62.5227 82.9187 58.4511 80.9694 54.4464 81.5349C50.7363 82.0588 47.3117 84.5536 45.8605 88.0401C44.2286 91.9566 46.0177 95.6256 48.8875 98.3878C51.7917 101.184 56.0512 103.73 60.2022 102.274C64.5738 100.74 66.3196 95.5281 63.972 91.6062V91.6044Z" fill="#E0B400"/>
<path d="M146.004 126.004C145.619 126.004 145.243 125.812 145.023 125.465C141.07 119.235 131.279 112.618 131.18 112.551C130.648 112.193 130.505 111.472 130.863 110.941C131.221 110.41 131.942 110.267 132.474 110.625C132.893 110.907 142.771 117.584 146.983 124.223C147.327 124.764 147.166 125.48 146.624 125.823C146.43 125.946 146.215 126.004 146.004 126.004V126.004Z" fill="#421F33"/>
<path d="M136.126 112.776C135.77 111.935 132.338 108.889 131.507 108.526C129.577 107.686 126.621 105.538 125.027 106.732C124.374 107.22 119.656 114.213 117.758 117.146C116.954 118.387 116.48 119.173 116.694 120.564C116.961 122.308 117.838 124.072 118.445 125.724C118.906 126.977 119.477 128.329 120.758 128.932C122.124 129.575 126.897 129.684 132.45 123.249C137.012 117.965 136.753 114.263 136.126 112.78V112.776Z" fill="white"/>
<path d="M48.8837 43.9054C48.5946 44.1438 47.906 44.7364 47.4904 44.4961C47.1723 44.3136 47.0349 43.4339 46.7458 43.1232C46.0121 42.3337 44.9151 42.3915 43.9953 42.7853C43.1314 43.1539 42.2965 44.1709 41.3333 44.245C40.7442 44.2901 40.7478 43.6579 40.5436 43.2424C40.3159 42.7835 39.987 42.4367 39.5045 42.247C38.5033 41.855 37.4967 42.2867 36.734 42.9515C35.7636 43.797 35.0425 44.7689 33.7161 45.085C33.0293 45.2476 32.2324 45.1573 31.6197 44.7851C32.4799 43.7572 32.9335 42.3662 32.8649 41.0005C32.8432 40.5543 32.5034 40.1713 32.0354 40.1713C29.9933 40.1749 28.5222 42.3698 29.1945 44.2829C29.2234 44.366 29.2559 44.4455 29.2903 44.525C29.2433 44.5449 29.1981 44.5665 29.1493 44.5846C28.215 44.9242 27.1506 44.758 26.4404 44.1601C27.8698 42.3464 28.4445 39.9021 26.9554 39.3042C25.9127 38.8851 24.906 39.7143 24.4326 40.5886C23.9428 41.4919 23.8615 42.6191 24.1597 43.5965C24.2013 43.7356 24.2519 43.8674 24.3079 43.9975C23.6248 44.5702 22.8061 44.852 22.0598 44.1511C21.2827 43.4212 20.108 44.59 20.8869 45.3235C22.329 46.6784 23.9537 46.3442 25.2693 45.3325C26.2488 46.2123 27.653 46.5844 29.0246 46.3297C29.4927 46.243 29.9246 46.084 30.3186 45.8672C31.3884 46.738 32.9281 47.0216 34.2889 46.644C35.4365 46.3261 36.4142 45.6306 37.2383 44.7924C37.5925 44.4329 38.0316 43.815 38.5846 43.7663C39.2045 43.7121 39.1882 44.4654 39.4303 44.8917C39.9364 45.7823 40.9339 46.0497 41.8863 45.813C42.9525 45.5475 43.6465 44.7291 44.6206 44.3064C44.8284 44.2161 45.2151 44.0553 45.441 44.1691C45.6488 44.2739 45.7266 44.6334 45.8079 44.8285C46.0211 45.3397 46.3265 45.7751 46.838 46.0208C47.9747 46.5682 49.2072 45.7823 50.0602 45.076C50.8824 44.3949 49.7042 43.2279 48.8873 43.9036L48.8837 43.9054ZM25.6452 42.3012C25.6813 41.808 25.9072 41.425 26.2217 40.9716C26.1747 41.0764 26.1657 41.2209 26.1259 41.3293C26.0048 41.6635 25.8205 41.9887 25.6452 42.3012ZM30.6981 43.2388C30.7143 42.8811 30.8499 42.5324 31.0794 42.2705C30.9944 42.6101 30.8679 42.9371 30.6981 43.2388Z" fill="#00A6E3"/>
<path d="M35.0256 51.7832C34.9876 51.6784 34.946 51.5755 34.9189 51.5176C34.7906 51.2539 34.6316 51.0317 34.4057 50.8402C33.9792 50.4807 33.4045 50.3416 32.8551 50.3597C31.2648 50.4139 30.5492 51.6947 29.3582 52.5022C28.7221 52.934 27.8854 52.9791 27.2384 52.5311C27.2041 52.5076 27.1697 52.4805 27.1372 52.4534C27.748 51.6134 28.2089 50.4518 27.2366 49.666C26.2951 48.9072 25.1638 49.6208 24.8981 50.6596C24.7445 51.2575 24.8023 51.8248 25.0065 52.3306C24.871 52.4462 24.7246 52.5492 24.5656 52.6341C23.9674 52.952 23.1958 52.9484 22.8669 52.2746C22.3988 51.3171 20.9675 52.1553 21.4356 53.111C21.909 54.0775 22.9717 54.5634 24.0216 54.4948C24.7734 54.446 25.4403 54.1064 26.0149 53.6421C26.9312 54.3719 28.2161 54.7007 29.313 54.3502C29.9112 54.1606 30.4082 53.8119 30.8745 53.4018C31.3389 52.9954 31.7473 52.4299 32.3166 52.1626C32.6798 51.991 33.1768 51.8826 33.437 52.2421C33.5834 52.4444 33.5942 52.7858 33.728 53.0116C33.8689 53.2519 34.0641 53.4091 34.2918 53.5608C34.6207 53.7794 35.0201 53.6566 35.2966 53.4307C35.4105 53.3368 35.5243 53.2447 35.64 53.1507C36.287 52.6232 35.7051 51.7922 35.0274 51.7796L35.0256 51.7832Z" fill="#00A6E3"/>
<path d="M56.5461 52.4754C55.6986 52.6778 54.8239 52.5676 54.0523 52.1611C53.8932 52.0762 53.7414 51.9805 53.5969 51.8757C53.8246 51.527 53.9872 51.1459 54.0378 50.734C54.1517 49.8235 53.6258 48.8913 52.6915 48.6764C51.7987 48.4704 51.0108 49.0611 50.8463 49.9355C50.7216 50.6039 50.9584 51.2597 51.3162 51.8251C51.2222 51.8847 51.1265 51.9407 51.0307 51.9877C50.2482 52.3761 49.1657 52.3779 48.591 51.621C47.9549 50.7809 46.5145 51.6065 47.1597 52.4574C48.4102 54.1067 50.6078 54.3127 52.2939 53.1601C52.3373 53.1294 52.3824 53.0987 52.4258 53.0662C53.6872 54.0814 55.3968 54.4536 56.9871 54.0742C58.0244 53.8267 57.5853 52.228 56.5461 52.4754V52.4754Z" fill="#00A6E3"/>
<path d="M46.26 61.0617L46.2094 61.0111C46.0756 60.8775 45.9293 60.8052 45.7811 60.7799C45.7395 60.7402 45.707 60.7095 45.6907 60.695C45.548 60.5631 45.3781 60.4584 45.2064 60.3716C44.7817 60.1603 44.2829 60.1043 43.8167 60.1422C42.7685 60.2271 41.9878 60.8016 41.0987 61.2966C39.9692 61.9234 39.2897 61.573 38.3283 60.8757C37.6072 60.3518 36.8627 59.7881 35.9374 59.7267C34.9543 59.6599 34.1898 60.1585 33.476 60.7763C32.6664 61.4772 32.1387 61.9415 31.0688 61.4248C30.1743 60.9913 29.39 60.3644 28.3761 60.2235C27.1581 60.0537 26.0503 60.6155 25.2027 61.4556C24.4437 62.2071 25.6166 63.3795 26.3756 62.628C27.431 61.582 28.3888 61.8078 29.5544 62.478C30.3532 62.9369 31.1881 63.4102 32.1423 63.3524C33.0965 63.2946 33.8067 62.6948 34.4898 62.0914C35.2705 61.4032 35.8199 61.1864 36.7416 61.7753C37.515 62.2685 38.1855 62.917 39.0782 63.2006C40.0794 63.5186 41.0499 63.2223 41.9354 62.7291C42.5914 62.3642 43.7245 61.3887 44.5359 61.8891C44.9425 62.1402 44.9679 62.6063 45.5642 62.6063C46.0178 62.6063 46.3395 62.2775 46.475 61.871C46.5672 61.5947 46.4624 61.2659 46.2618 61.0654L46.26 61.0617Z" fill="#00A6E3"/>
<path d="M58.3353 62.0124C58.2757 61.3296 57.56 61.0857 57.0884 61.2862C57.036 61.1706 56.9763 61.0568 56.9076 60.9502C56.7902 60.7732 56.6438 60.6214 56.4812 60.4877C56.1179 60.1897 55.6697 60.0325 55.2035 59.9927C54.027 59.8916 53.0927 60.569 52.2144 61.2627C51.3777 61.9239 52.5578 63.0891 53.3873 62.4351C53.8445 62.0738 54.6559 61.3729 55.2975 61.6872C55.7583 61.9131 55.8234 62.6375 56.2499 62.9626C57.0269 63.557 58.4329 63.1144 58.3353 62.0124V62.0124Z" fill="#00A6E3"/>
<path d="M39.8325 70.8604C39.1963 70.3889 38.4066 70.1415 37.5843 70.1866C36.9663 70.2209 36.3663 70.4215 35.8657 70.7864C35.4627 71.079 34.9025 71.9769 34.3585 71.8378C33.8363 71.7041 33.3826 70.949 32.911 70.6635C32.376 70.3402 31.749 70.1758 31.1273 70.1595C29.8008 70.1252 28.599 70.7629 27.8527 71.845C27.2455 72.7248 28.6822 73.5557 29.284 72.6814C29.8189 71.9046 30.9393 71.5957 31.8122 71.9552C32.7574 72.3436 33.2128 73.4275 34.3314 73.5196C35.5296 73.619 35.9976 72.6742 36.8687 72.0979C37.6512 71.5812 38.7825 71.8558 39.2777 72.6326C39.5759 73.1023 40.4487 73.2396 40.709 72.6326C40.7903 72.4412 40.8734 72.2497 40.9547 72.06C41.2945 71.2669 40.4017 70.557 39.8343 70.8604H39.8325Z" fill="#00A6E3"/>
<path d="M47.9602 68.3944C47.3548 69.4205 46.7476 70.4466 46.1422 71.4745C45.9904 71.1548 45.8477 70.8314 45.723 70.4972C45.3489 69.509 43.7459 69.9372 44.1236 70.938C44.4706 71.8593 44.8844 72.7391 45.3904 73.5845C45.7103 74.1192 46.5037 74.1246 46.8217 73.5845C47.6783 72.1339 48.5349 70.6833 49.3915 69.2326C49.9355 68.3113 48.5024 67.4767 47.9602 68.3962V68.3944Z" fill="#E0B400"/>
<path d="M57.5587 40.497C56.7527 41.608 55.9594 42.728 55.1733 43.8535C55.0576 43.6385 54.9401 43.4253 54.8245 43.2104C54.3149 42.2728 52.8835 43.1074 53.3932 44.0468C53.7185 44.6447 54.0438 45.2445 54.3673 45.8425C54.6835 46.4241 55.4624 46.3302 55.7985 45.8425C56.8449 44.3268 57.9075 42.8238 58.99 41.3334C59.6171 40.4681 58.1804 39.6407 57.5587 40.497V40.497Z" fill="#E0B400"/>
<path d="M122.77 105.223C121.662 104.179 121.286 102.589 121.763 101.142C122.132 100.008 122.421 98.8753 122.649 97.73C122.86 96.6695 120.93 95.6164 120.93 95.6164C120.93 95.6164 120.023 95.8855 119.494 97.2422C117.988 99.1969 115.729 97.6613 115.729 97.6613C115.729 97.6613 108.412 94.1549 108.014 92.1587C107.958 91.8787 107.779 91.6294 107.507 91.5499C107.389 91.5156 107.254 91.5029 107.107 91.5354C104.382 92.1262 103.899 95.5495 105.089 98.0172C104.821 98.3514 104.51 98.5917 104.295 98.9909C104.078 99.3956 103.943 99.8038 103.867 100.257C103.757 100.927 103.824 101.612 104.057 102.241C102.39 103.402 102.195 105.81 103.562 107.29C102.857 108.309 102.39 109.541 103.11 110.708C103.511 111.358 104.212 111.624 104.89 111.895C105.764 112.243 106.639 112.59 107.512 112.941C108.325 113.266 109.137 113.647 109.995 113.835C110.895 114.032 115.599 115.517 116.053 115.931C116.051 115.936 119.002 119.703 119.002 119.703C120.269 121.321 123.451 120.561 125.853 118.062C128.598 115.206 129.267 111.344 128.105 110.249L122.772 105.227L122.77 105.223Z" fill="#FFCC00"/>
<path d="M104.886 113.051C104.743 113.051 104.597 113.024 104.456 112.968L104.405 112.948C103.65 112.649 102.71 112.275 102.117 111.314C101.593 110.465 101.223 109.124 102.159 107.354C101.639 106.499 101.409 105.486 101.519 104.467C101.628 103.466 102.061 102.545 102.741 101.84C102.629 101.257 102.622 100.655 102.719 100.066C102.815 99.4828 102.996 98.9517 103.269 98.4404C103.411 98.1731 103.576 97.9617 103.733 97.7828C103.137 96.0829 103.178 94.1825 103.874 92.7553C104.476 91.5233 105.535 90.6869 106.856 90.3997C107.178 90.3292 107.505 90.34 107.824 90.434C108.497 90.6291 109.003 91.2017 109.149 91.9298C109.399 92.7319 112.707 94.925 116.228 96.6122C116.28 96.6375 116.331 96.6664 116.378 96.6989C116.681 96.8977 117.726 97.4757 118.483 96.6357C119.211 94.9575 120.451 94.5438 120.594 94.5022L121.255 96.726C121.288 96.717 120.867 96.8995 120.57 97.66C120.531 97.763 120.477 97.8587 120.41 97.9472C118.731 100.126 116.284 99.3961 115.153 98.668C114.786 98.4892 113.136 97.6763 111.423 96.6502C108.256 94.7533 107.304 93.5845 106.99 92.777C106.538 92.9595 106.2 93.2882 105.963 93.7724C105.472 94.7786 105.54 96.2816 106.133 97.5101C106.326 97.9111 106.274 98.388 105.996 98.7367C105.873 98.892 105.75 99.0221 105.641 99.1377C105.497 99.2913 105.385 99.4123 105.318 99.537C105.164 99.8224 105.067 100.111 105.013 100.444C104.935 100.912 104.982 101.392 105.144 101.835C105.329 102.33 105.153 102.886 104.72 103.19C104.214 103.542 103.899 104.084 103.831 104.716C103.76 105.372 103.972 106.022 104.413 106.499C104.781 106.898 104.823 107.5 104.514 107.946C103.592 109.279 103.957 109.872 104.096 110.094C104.286 110.401 104.74 110.582 105.266 110.792L105.316 110.811C105.911 111.048 106.202 111.724 105.965 112.318C105.784 112.773 105.347 113.05 104.886 113.05V113.051Z" fill="#FF7E33"/>
<path d="M111.209 102.485C111.023 102.485 110.834 102.44 110.658 102.346L104.534 99.0369C103.97 98.7316 103.76 98.0288 104.064 97.4652C104.369 96.9016 105.072 96.692 105.636 96.9955L111.761 100.305C112.325 100.61 112.534 101.313 112.231 101.877C112.021 102.265 111.622 102.485 111.208 102.485H111.209Z" fill="#FF7E33"/>
<path d="M109.83 106.884C109.642 106.884 109.452 106.839 109.275 106.743L103.478 103.589C102.914 103.282 102.706 102.577 103.013 102.016C103.32 101.454 104.025 101.246 104.587 101.551L110.385 104.706C110.948 105.013 111.156 105.717 110.849 106.279C110.638 106.666 110.24 106.884 109.828 106.884H109.83Z" fill="#FF7E33"/>
<path d="M108.411 111.032C108.249 111.032 108.082 110.998 107.925 110.925L103.051 108.673C102.469 108.404 102.216 107.714 102.486 107.132C102.755 106.55 103.443 106.297 104.027 106.566L108.901 108.819C109.483 109.088 109.736 109.778 109.467 110.36C109.27 110.785 108.85 111.034 108.413 111.034L108.411 111.032Z" fill="#FF7E33"/>
<path d="M140.16 113.711H137.95C137.309 113.711 136.79 113.191 136.79 112.551C136.79 111.912 137.311 111.391 137.95 111.391H140.16C140.802 111.391 141.321 111.912 141.321 112.551C141.321 113.191 140.8 113.711 140.16 113.711Z" fill="#421F33"/>
<path d="M118.908 43.4448C116.055 39.5807 106.816 36.0707 102.045 35.8358C100.251 34.3148 98.4581 32.4324 96.1431 31.7567C92.245 30.6205 86.7042 31.6863 84.9259 35.7527C84.1163 37.6008 84.1506 39.6945 84.5573 41.6708C82.4718 42.1731 80.3375 42.9968 79.2062 44.89C77.2725 48.1237 78.1327 53.0952 80.0935 56.1952C80.22 56.3957 80.8634 59.0747 81.1272 60.4242C81.6423 63.0581 82.2748 65.5673 83.6736 67.8724C87.4849 74.1536 100.3 76.6918 107.114 77.6023C107.114 77.6023 117.215 73.2251 120.162 65.7462C123.572 57.0966 123.601 49.8001 118.908 43.443V43.4448Z" fill="#421F33"/>
<path d="M103.801 64.3554C103.013 63.4774 102.14 62.1442 103.157 55.9696C102.469 55.5812 101.88 54.9182 101.496 54.2227C100.916 53.1695 100.748 51.885 101.196 50.8156C96.2176 51.1046 91.1124 50.8933 86.4806 49.1157C85.2553 48.646 83.5566 48.4888 82.8138 50.3459C82.4162 51.3413 80.9163 58.8329 80.6109 60.0197C78.6934 67.5023 77.6905 76.9846 89.0197 79.9762C89.0197 79.9762 87.1312 86.9963 91.2317 87.923C96.1996 89.0467 105.118 84.7273 107.314 83.6073C107.623 83.4483 107.829 83.143 107.858 82.7962L109.656 61.3024C109.656 61.3024 104.473 65.1069 103.797 64.3535L103.801 64.3554Z" fill="#FFCC00"/>
<path d="M99 58.296C98.8373 58.1298 98.6385 57.9871 98.4343 57.8589C96.8856 56.8833 94.9175 56.4913 93.1393 56.9231C92.3694 57.1092 90.9743 57.7378 91.849 58.6284C92.2032 58.9879 92.6297 58.885 93.0742 58.8362C94.6411 58.6664 96.123 59.1487 97.5524 59.743C97.8669 59.8731 98.2012 60.0086 98.5373 59.9761C98.8572 59.9454 99.1373 59.7557 99.2711 59.4992C99.4048 59.2444 99.3958 58.9319 99.2656 58.6646C99.2006 58.5291 99.1084 58.408 99 58.296V58.296Z" fill="#421F33"/>
<path d="M85.5888 56.4967C85.4298 56.2022 85.175 55.9818 84.9021 55.7957C84.3075 55.3893 83.534 55.0948 82.8039 55.0244C81.8497 54.9304 80.7781 55.2935 80.6137 56.2419C80.5757 56.4605 80.6173 56.7062 80.7799 56.876C81.1775 57.2915 81.81 57.0747 82.3015 57.0422C82.9033 57.0025 83.5232 57.1199 84.0671 57.38C84.2533 57.4686 84.4304 57.5751 84.6292 57.6366C85.4352 57.8913 85.9123 57.1217 85.5888 56.4967Z" fill="#421F33"/>
<path d="M83.5251 67.5768C83.7673 67.6599 84.0022 67.7972 84.2209 67.8803C84.6456 68.0411 85.0829 68.1748 85.5293 68.2778C86.6497 68.5361 87.8352 68.5975 88.9864 68.4982C89.4707 68.4566 90.1357 68.4566 90.3833 68.9046C90.6887 69.4592 90.2026 70.1132 89.7653 70.4925C88.3846 71.6902 86.0027 72.0046 84.3058 71.1537C83.8883 70.9442 83.5215 70.6605 83.2396 70.3191C82.8257 69.8169 81.7071 67.6184 83.0697 67.5064C83.2233 67.4937 83.3751 67.5262 83.5251 67.5786V67.5768Z" fill="white"/>
<path d="M83.922 59.1584C84.4443 59.2162 84.6106 59.6823 84.5997 60.1502C84.5907 60.5205 84.5221 60.889 84.3956 61.2377C84.1895 61.8085 83.5335 62.2078 83.0691 61.6134C82.8576 61.3425 82.8034 60.9667 82.8125 60.6325C82.8305 60.0345 83.1468 59.0916 83.9004 59.1584H83.9203H83.922Z" fill="#421F33"/>
<path d="M94.82 60.7729C95.3423 60.8307 95.5086 61.2968 95.4977 61.7647C95.4887 62.135 95.42 62.5035 95.2935 62.8522C95.0875 63.423 94.4333 63.8223 93.967 63.2279C93.7556 62.957 93.7014 62.5812 93.7122 62.247C93.7303 61.6491 94.0466 60.7061 94.8002 60.7729C94.8074 60.7729 94.8128 60.7729 94.82 60.7747V60.7729Z" fill="#421F33"/>
<path d="M85.6909 67.0864C85.4993 67.0864 85.3042 67.0376 85.1235 66.9383C84.0193 66.3187 83.2838 65.2944 83.1536 64.1996C83.0344 63.1844 83.4301 62.1998 84.2687 61.4284C85.8102 60.0085 85.8499 58.4296 85.8517 58.3646C85.8463 57.7233 86.3614 57.2066 87.0029 57.2012C87.6481 57.1958 88.1685 57.7179 88.1739 58.3574C88.1739 58.464 88.1685 60.9913 85.8427 63.1338C85.5572 63.3957 85.4288 63.6649 85.4596 63.9305C85.5011 64.2845 85.8084 64.6621 86.2602 64.9168C86.8186 65.2311 87.0174 65.9375 86.7047 66.4957C86.4915 66.875 86.0975 67.0882 85.6909 67.0882V67.0864Z" fill="#FF7E33"/>
<path d="M111.653 69.4624C109.105 71.8055 105.577 72.1126 103.772 70.1507C101.966 68.1889 102.568 64.6987 105.115 62.3575C107.663 60.0144 111.19 59.7073 112.996 61.6692C114.801 63.631 114.201 67.1212 111.653 69.4624Z" fill="#FFCC00"/>
<path d="M106.66 68.6623C106.317 68.6623 105.975 68.5105 105.745 68.2179C105.35 67.7139 105.438 66.984 105.942 66.5884L110.41 63.0838C110.914 62.6882 111.644 62.7767 112.04 63.2807C112.436 63.7847 112.347 64.5146 111.843 64.9102L107.376 68.4148C107.162 68.581 106.911 68.6623 106.66 68.6623V68.6623Z" fill="#FF7E33"/>
<path d="M98.7871 79.0971C94.2456 80.7519 89.0211 79.9769 89.0211 79.9769C89.0211 79.9769 87.1326 86.997 91.233 87.9237C91.5421 87.9941 91.8655 88.0411 92.2017 88.07C95.5233 86.4225 98.2467 82.8167 99.8117 80.3635C100.256 79.668 99.5605 78.8117 98.7853 79.0953L98.7871 79.0971Z" fill="#FF7E33"/>
<path d="M86.484 45.0515C85.5984 44.7426 84.637 44.7426 83.7389 44.9792C83.56 44.8058 83.3015 44.7191 82.9852 44.8094C81.9045 45.1183 80.9088 45.5158 80.2654 46.4895C79.6438 47.4307 79.1902 48.6049 79.3745 49.7412C79.7703 52.1709 82.21 53.2946 84.4274 53.4554C86.7406 53.6216 89.0755 52.5611 89.5236 50.0862C89.9284 47.8552 88.5875 45.7885 86.4821 45.0515H86.484Z" fill="#421F33"/>
<path d="M69.8181 15.0389L68.5621 9.1912C68.4356 8.60228 67.5953 8.60228 67.4688 9.1912L66.2128 15.0389C66.1712 15.2322 66.0303 15.3893 65.8423 15.4526L62.4539 16.5726C61.9425 16.7424 61.9425 17.465 62.4539 17.633L65.8423 18.753C66.0303 18.8145 66.1712 18.9716 66.2128 19.1667L67.4688 25.0144C67.5953 25.6033 68.4356 25.6033 68.5621 25.0144L69.8181 19.1667C69.8597 18.9734 70.0006 18.8163 70.1886 18.753L73.577 17.633C74.0885 17.4632 74.0885 16.7406 73.577 16.5726L70.1886 15.4526C70.0006 15.3911 69.8597 15.234 69.8181 15.0389Z" fill="#FFC257"/>
<path d="M8.17752 58.8328L6.92153 52.9851C6.79503 52.3962 5.95468 52.3962 5.82818 52.9851L4.5722 58.8328C4.53064 59.0261 4.38967 59.1833 4.20172 59.2465L0.813261 60.3665C0.30183 60.5364 0.30183 61.259 0.813261 61.427L4.20172 62.547C4.38967 62.6084 4.53064 62.7656 4.5722 62.9607L5.82818 68.8083C5.95468 69.3973 6.79503 69.3973 6.92153 68.8083L8.17752 62.9607C8.21908 62.7674 8.36005 62.6102 8.548 62.547L11.9365 61.427C12.4479 61.2572 12.4479 60.5345 11.9365 60.3665L8.548 59.2465C8.36005 59.1851 8.21908 59.0279 8.17752 58.8328Z" fill="#FFC257"/>
</svg>
