<svg width="113" height="150" viewBox="0 0 113 150" fill="none" xmlns="http://www.w3.org/2000/svg">
<path d="M0.403624 28.3645C0.60943 28.3827 0.761335 28.563 0.745001 28.7682C0.723767 28.9733 0.560429 29.1321 0.35299 29.1239C0.148817 29.1156 -0.0194212 28.9336 0.00181273 28.7202C0.0181465 28.5067 0.199452 28.3479 0.403624 28.3645V28.3645Z" fill="#CE0066"/>
<path d="M9.31039 21.8259C9.49496 21.9169 9.57663 22.1419 9.4917 22.3289C9.40676 22.5158 9.18462 22.6002 8.99678 22.5158C8.80731 22.4331 8.72727 22.2081 8.81711 22.0129C8.90531 21.8176 9.12745 21.7349 9.31202 21.8242L9.31039 21.8259Z" fill="#CE0066"/>
<path d="M4.30956 0.117471C4.3798 0.193577 4.41246 0.291191 4.4092 0.387151C4.4092 0.43513 4.39776 0.481455 4.37653 0.526126C4.35693 0.569142 4.32916 0.610502 4.29323 0.648555C4.15112 0.794149 3.91592 0.794149 3.77055 0.648555C3.62354 0.501307 3.62681 0.259756 3.77545 0.107545C3.81301 0.0694918 3.85548 0.0430203 3.90285 0.0248211C3.94858 0.00662193 3.99759 0 4.04659 0C4.14296 0.00165447 4.23769 0.0430165 4.30793 0.119122L4.30956 0.117471Z" fill="#CE0066"/>
<path d="M6.20832 38.9515C6.40596 38.9598 6.58073 39.0491 6.7065 39.1815C6.76857 39.2476 6.8192 39.3254 6.85187 39.4098C6.8682 39.4528 6.88127 39.4958 6.88944 39.5421C6.8927 39.5653 6.89597 39.5885 6.8976 39.6116C6.90087 39.6348 6.9025 39.6596 6.9025 39.6828C6.90577 39.8763 6.829 40.0534 6.70323 40.1857C6.57746 40.3181 6.39942 40.4058 6.20342 40.414C6.00578 40.4223 5.82774 40.3462 5.69544 40.2139C5.56313 40.0815 5.47983 39.8912 5.47656 39.6811C5.47656 39.6546 5.47656 39.6282 5.4782 39.6034C5.48146 39.5785 5.48636 39.5521 5.49126 39.5273C5.5027 39.4776 5.5174 39.4313 5.537 39.385C5.5762 39.294 5.6301 39.2146 5.69707 39.1484C5.82937 39.016 6.01068 38.9416 6.20668 38.9498L6.20832 38.9515Z" fill="#CE0066"/>
<path d="M6.83468 22.1879C6.92288 22.2326 6.99638 22.2922 7.05845 22.3633C7.12052 22.4344 7.16789 22.5172 7.19892 22.6032C7.26262 22.7769 7.26262 22.9705 7.18095 23.1459C7.16135 23.1905 7.13685 23.2302 7.10908 23.2683C7.07968 23.3047 7.05028 23.3411 7.01925 23.3725C6.95555 23.437 6.87878 23.4867 6.79548 23.5214C6.62887 23.5909 6.43286 23.5992 6.24993 23.5264C6.06699 23.4519 5.93142 23.308 5.86282 23.1326C5.82851 23.0449 5.81055 22.949 5.81055 22.8497C5.81055 22.8001 5.81545 22.7504 5.82851 22.7025C5.83995 22.6545 5.85628 22.6048 5.87915 22.5569C5.96572 22.3649 6.11762 22.226 6.29076 22.1598C6.37733 22.1267 6.4688 22.1102 6.56027 22.1151C6.65337 22.1201 6.74811 22.1433 6.83468 22.1879V22.1879Z" fill="#CE0066"/>
<path d="M11.4067 16.3583C11.5325 16.5121 11.5831 16.7041 11.5701 16.8844C11.5635 16.9754 11.539 17.0647 11.4982 17.1458C11.459 17.2285 11.4051 17.3063 11.3349 17.3725C11.1944 17.5032 11.0131 17.5611 10.8285 17.5545C10.6456 17.5445 10.4675 17.4767 10.3287 17.3328C10.1931 17.1905 10.1213 16.9986 10.1343 16.8133C10.1441 16.6263 10.2291 16.4377 10.3826 16.2954C10.4594 16.2259 10.5443 16.1713 10.6374 16.1399C10.7305 16.1101 10.8269 16.0969 10.92 16.1035C11.1062 16.1167 11.2842 16.2027 11.4084 16.3566L11.4067 16.3583Z" fill="#CE0066"/>
<path d="M18.0891 27.1534C18.3619 27.2576 18.571 27.4644 18.6918 27.7027C18.7523 27.8234 18.7915 27.9508 18.8029 28.0815C18.8192 28.2139 18.8127 28.3496 18.7751 28.4819C18.7572 28.5481 18.731 28.611 18.6984 28.6705C18.6657 28.7301 18.6363 28.7863 18.5955 28.8393C18.5171 28.9435 18.4174 29.0329 18.3031 29.1023C18.1887 29.1718 18.0597 29.2231 17.929 29.2512C17.7967 29.2794 17.6546 29.281 17.5109 29.2529C17.3688 29.2248 17.2365 29.1669 17.1238 29.0858C17.0094 29.0047 16.9163 28.8988 16.8461 28.7764C16.7775 28.654 16.7285 28.5134 16.7089 28.3645C16.6991 28.29 16.6942 28.2122 16.7024 28.1345C16.7105 28.0567 16.7252 27.979 16.7465 27.9012C16.7906 27.744 16.8608 27.6034 16.9506 27.4859C17.047 27.3701 17.1597 27.2758 17.2838 27.208C17.5321 27.074 17.8196 27.0491 18.0907 27.1534H18.0891Z" fill="#CE0066"/>
<path d="M36.6232 31.3702C35.7526 31.3702 34.8199 31.2445 33.8415 30.9897C31.3147 30.3329 28.8189 28.8521 27.3276 27.1265C24.2634 23.5793 24.6194 18.1692 28.1198 15.0654C29.8152 13.5615 31.9893 12.817 34.2368 12.9692C36.486 13.1214 38.5424 14.1505 40.0255 15.8678C41.5168 17.5934 42.634 20.2952 42.9427 22.9192C43.3004 25.9535 42.5866 28.4319 40.9336 29.8977C39.8344 30.8722 38.3513 31.3702 36.6199 31.3702H36.6232ZM33.6684 14.3556C31.9615 14.3556 30.3314 14.9744 29.0345 16.1242C26.1091 18.7185 25.8118 23.2401 28.3729 26.2033C30.1158 28.2201 33.6553 29.9656 36.6346 29.9656C37.938 29.9656 39.132 29.6314 40.0239 28.8422C42.9525 26.2463 41.4906 19.6946 38.985 16.796C37.7453 15.3599 36.027 14.4996 34.1469 14.3738C33.9869 14.3639 33.8268 14.3573 33.6684 14.3573V14.3556Z" fill="black"/>
<path d="M70.1844 94.4669C77.6119 86.9436 77.6119 74.7459 70.1844 67.2225C62.757 59.6992 50.7148 59.6992 43.2874 67.2225C35.86 74.7459 35.86 86.9436 43.2874 94.4669C50.7148 101.99 62.757 101.99 70.1844 94.4669Z" fill="black"/>
<path d="M31.0944 46.5452L30.9376 65.8644C30.9376 65.8644 13.9113 69.0774 18.916 85.8124C23.9223 102.546 55.4612 92.0663 55.4612 92.0663L50.9564 46.9356L31.0944 46.5452V46.5452Z" fill="black"/>
<path d="M72.5404 37.0681C68.9012 30.0581 61.6931 25.2701 53.7598 24.8714C48.1589 24.5901 42.4176 26.4249 38.1871 30.1607C32.2776 35.3773 29.6429 44.0947 31.8072 51.6904C33.9714 59.286 40.843 65.798 48.6979 66.2778C55.6414 66.7014 63.333 65.6739 68.354 60.3598C70.1965 58.4108 71.3186 56.1177 72.3477 53.684C73.5025 50.9508 74.6475 48.1382 74.6948 45.1238C74.7324 42.6867 74.0431 40.2844 73.032 38.0707C72.8769 37.7316 72.7152 37.399 72.5437 37.0698L72.5404 37.0681Z" fill="black"/>
<path d="M46.3966 70.8502C46.3966 70.8502 29.4212 74.284 26.9757 100.241C24.55 125.978 22.0586 149.058 22.0586 149.058L95.2939 150C95.2939 150 85.0562 73.9829 61.0528 71.4523C46.9362 69.9634 46.3982 70.8502 46.3982 70.8502H46.3966Z" fill="white"/>
<path d="M61.2302 68.9318C69.5033 68.9318 74.8967 64.4036 74.8967 50.7707C74.8967 49.4306 74.5129 46.8629 74.5129 46.8629L69.3988 37.2024C69.3988 37.2024 62.9502 53.7703 47.1668 50.7707C47.1668 50.7707 49.4225 62.3421 46.3877 70.7021C46.3877 70.7021 52.4949 76.1586 58.1431 76.1586C61.2792 76.1586 61.2792 71.2928 61.2792 71.2928L61.2302 68.9318V68.9318Z" fill="#FFCC00"/>
<path d="M74.513 46.8671C74.5012 46.8041 74.4861 46.7429 74.4727 46.6799C74.4861 46.7429 74.4995 46.8041 74.5113 46.8671H74.513Z" fill="white"/>
<path d="M51.9521 58.16C51.9521 60.8915 54.1392 63.1069 56.836 63.1069C59.5327 63.1069 61.7198 60.8915 61.7198 58.16C61.7198 55.4285 59.5327 53.2131 56.836 53.2131C54.1392 53.2131 51.9521 55.4285 51.9521 58.16Z" fill="#FFC950"/>
<path d="M49.2651 59.0055C51.3012 56.9431 51.3012 53.5994 49.2651 51.537C47.229 49.4746 43.9279 49.4746 41.8918 51.537C39.8557 53.5993 39.8557 56.9431 41.8918 59.0055C43.9279 61.0679 47.229 61.0679 49.2651 59.0055Z" fill="#FFCC00"/>
<path d="M49.3842 55.9751C49.002 55.9751 48.69 55.6607 48.69 55.2719C48.69 53.5331 47.2935 52.1185 45.5768 52.1185C43.8601 52.1185 42.4636 53.5331 42.4636 55.2719C42.4636 55.6591 42.1532 55.9751 41.7694 55.9751C41.3855 55.9751 41.0752 55.6607 41.0752 55.2719C41.0752 52.7588 43.0941 50.7139 45.5752 50.7139C48.0563 50.7139 50.0751 52.7588 50.0751 55.2719C50.0751 55.6591 49.7648 55.9751 49.3826 55.9751H49.3842Z" fill="black"/>
<path d="M72.4512 58.1607C72.4512 59.2428 72.7958 60.2437 73.3773 61.0594C74.1058 59.1187 74.586 56.7644 74.7869 53.9402C73.3855 54.8104 72.4512 56.3739 72.4512 58.1607Z" fill="#FFC950"/>
<path d="M61.3859 70.3007C61.3745 70.3007 57.7141 70.2428 57.7141 70.2428C57.3318 70.2361 57.0264 69.9168 57.0313 69.5297C57.0378 69.1425 57.3547 68.8282 57.7353 68.8381L61.3957 68.896C61.7779 68.9026 62.0834 69.222 62.0785 69.6091C62.0719 69.9929 61.7632 70.3007 61.3859 70.3007Z" fill="black"/>
<path d="M69.1266 56.4946C69.0727 56.4946 69.0171 56.488 68.9616 56.4747C68.5908 56.3837 68.3621 56.0032 68.452 55.6277C68.5189 55.3431 68.6414 54.4348 68.3393 54.003C68.2396 53.8607 68.1122 53.7118 67.9767 53.5563C67.32 52.7935 66.42 51.7479 67.0603 49.478C67.1649 49.1057 67.5487 48.889 67.9179 48.9949C68.2854 49.1008 68.4993 49.4896 68.3948 49.8635C67.962 51.4005 68.4291 51.9448 69.022 52.6331C69.1723 52.8084 69.3291 52.9888 69.4696 53.189C70.1915 54.218 69.842 55.7832 69.7995 55.9585C69.7227 56.2795 69.4385 56.4946 69.1266 56.4946V56.4946Z" fill="black"/>
<path d="M68.2743 60.267C65.9189 60.267 64.5877 56.8522 64.5289 56.6983C64.3917 56.336 64.5681 55.9307 64.9258 55.79C65.2836 55.6511 65.6837 55.8297 65.8226 56.1921C66.1166 56.9548 67.2354 59.0791 68.4899 58.8425C70.0334 58.553 70.1853 56.6388 70.1919 56.556C70.2196 56.1706 70.5496 55.8794 70.9302 55.9042C71.3107 55.9307 71.5998 56.2616 71.5753 56.647C71.51 57.7125 70.8321 59.8319 68.7431 60.224C68.583 60.2538 68.4278 60.2687 68.2759 60.2687L68.2743 60.267Z" fill="black"/>
<path d="M68.6939 48.2347C68.5567 48.2347 68.4179 48.1934 68.297 48.1073C67.985 47.8856 67.9082 47.4505 68.1255 47.1329C68.1647 47.075 69.1169 45.7133 70.7046 45.4933C71.7189 45.3526 72.73 45.6968 73.71 46.5174C74.0057 46.7639 74.0465 47.2073 73.8031 47.5068C73.5597 47.8062 73.122 47.8476 72.8264 47.6011C72.1616 47.0435 71.5131 46.8036 70.9022 46.8847C69.9206 47.0154 69.2689 47.9303 69.2623 47.9386C69.1267 48.1322 68.9128 48.2347 68.6939 48.2347V48.2347Z" fill="black"/>
<path d="M40.8434 17.9851C43.6609 21.2461 45.0346 28.17 41.8169 31.0224C38.5975 33.8763 32.0051 31.5782 29.1876 28.3173C26.37 25.0563 26.6966 20.1012 29.9144 17.2472C33.1338 14.3933 38.0258 14.7242 40.8434 17.9835V17.9851Z" fill="black"/>
<path d="M66.1144 92.0627C65.755 92.0627 65.4512 91.783 65.4234 91.4141C64.9743 85.4944 60.654 78.7475 60.6099 78.6796C60.4008 78.3554 60.4906 77.9202 60.8108 77.7068C61.1309 77.495 61.5605 77.5844 61.7712 77.9086C61.9574 78.1965 66.33 85.0196 66.8069 91.3049C66.8363 91.692 66.5505 92.0296 66.1683 92.0593C66.1503 92.0593 66.1323 92.061 66.1144 92.061V92.0627Z" fill="black"/>
<path d="M111.952 149.694L11.1705 148.692L10.1807 88.3597L112.942 87.3555L111.952 149.694Z" fill="#CE0066"/>
<path d="M90.1603 110.926C89.9038 110.817 89.7029 110.537 89.5543 110.087C89.4465 109.747 89.3926 109.393 89.3926 109.024C89.3926 108.602 89.453 108.37 89.5739 108.329C91.3363 108.178 93.7325 108.029 96.7591 107.879C96.813 107.824 96.8392 107.783 96.8392 107.756C96.8392 107.73 96.8114 107.695 96.7591 107.654L91.1877 104.811C90.8381 104.593 90.6764 104.32 90.7025 103.994C90.6617 103.489 90.7695 103.142 91.026 102.952C91.2955 102.816 91.6924 102.611 92.2167 102.338C92.6479 102.106 93.28 101.813 94.1147 101.459C95.0032 101.092 95.6419 100.806 96.0323 100.601C94.6194 100.273 93.623 100.035 93.0448 99.8843C91.645 99.5302 90.7107 99.2308 90.2387 98.9842C89.6474 98.6848 89.3713 98.2348 89.4105 97.6342C89.3844 97.0882 89.5249 96.7557 89.8352 96.6316C92.8488 96.9724 97.2491 97.8642 103.036 99.3102C103.239 99.5286 103.338 99.9505 103.338 100.578C103.338 100.864 103.304 101.069 103.237 101.191C101.904 101.86 99.7041 102.751 96.6366 103.87C99.5163 105.6 101.796 107.147 103.479 108.511C103.533 109.029 103.559 109.404 103.559 109.636C103.559 110.208 103.337 110.569 102.892 110.719C102.69 110.774 102.22 110.804 101.48 110.812C100.74 110.819 99.3742 110.863 97.3814 110.944C95.7399 111.012 94.3875 111.047 93.3241 111.047C92.1808 111.047 91.124 111.006 90.1554 110.925L90.1603 110.926Z" fill="#FFC950"/>
<path d="M89.876 123.07C89.5804 122.607 89.4448 121.945 89.4726 121.087C89.943 120.746 90.8381 120.35 92.1579 119.9L92.3392 119.839L92.3196 119.656C92.1709 118.266 91.9227 117.045 91.5731 115.996L91.5323 115.873L91.4114 115.832C90.9541 115.736 90.335 115.559 89.5543 115.301C89.2047 115.111 89.0365 114.755 89.0495 114.237C89.0626 113.759 89.11 113.215 89.1916 112.601C91.1158 112.819 93.4711 113.344 96.256 114.176C97.4124 114.517 99.789 115.279 103.381 116.466C103.476 116.534 103.543 116.82 103.583 117.324C103.624 117.788 103.631 118.102 103.603 118.264C103.253 118.509 102.6 118.884 101.645 119.389C98.4006 120.833 94.4789 122.061 89.876 123.069V123.07ZM94.6194 119.063C95.2646 118.873 96.4095 118.491 98.0511 117.918L99.3839 117.407L97.9907 117.06C97.3455 116.883 96.1809 116.631 94.4985 116.304L93.9742 116.222L93.9938 116.754C94.0068 116.972 94.2159 117.741 94.6194 119.063V119.063Z" fill="#FFC950"/>
<path d="M103.804 133.661C103.144 133.674 102.223 133.648 101.039 133.58C100.998 132.571 100.83 131.522 100.534 130.431C99.0936 130.226 97.2447 130.077 94.9841 129.981L89.3734 129.736C89.1856 128.959 89.0908 128.489 89.0908 128.325C89.0908 127.971 89.1856 127.678 89.3734 127.447C90.0872 127.366 90.8402 127.324 91.634 127.324C92.4948 127.324 93.777 127.392 95.479 127.529C97.181 127.665 98.4632 127.735 99.324 127.735C99.6735 127.735 100.017 127.728 100.353 127.715C100.379 127.4 100.346 126.965 100.252 126.406C100.157 125.792 100.11 125.364 100.11 125.117C100.11 124.857 100.142 124.639 100.211 124.464C101.113 124.341 101.859 124.28 102.452 124.28C102.681 124.28 102.883 124.287 103.058 124.3C103.084 124.599 103.293 125.949 103.683 128.348C103.953 129.998 104.087 131.374 104.087 132.478C104.087 132.819 104.074 133.153 104.046 133.481C103.912 133.603 103.83 133.664 103.804 133.664V133.661Z" fill="#FFC950"/>
<path d="M103.098 145.314C99.4113 145.014 94.8345 144.359 89.3725 143.351C89.2386 143.146 89.1781 142.847 89.1912 142.451C89.2043 142.287 89.2516 141.912 89.3317 141.326C90.0455 141.204 90.9062 141.143 91.9157 141.143C92.1982 141.143 92.6621 141.149 93.309 141.162C93.9541 141.176 94.4262 141.182 94.7218 141.182H94.944L94.9636 140.957C95.0583 139.922 94.9897 139.002 94.761 138.198L94.7202 138.055L94.5797 138.014C93.5295 137.878 92.03 137.66 90.0781 137.36C89.8625 136.801 89.7547 136.249 89.7547 135.704C89.7547 135.431 89.7874 135.186 89.856 134.968C89.923 134.859 90.0046 134.791 90.0977 134.763L96.9612 135.274C99.5305 135.532 101.786 135.956 103.723 136.541C103.939 136.978 104.047 137.536 104.047 138.217C104.047 138.462 104.034 138.722 104.006 138.995C103.253 138.982 102.209 138.899 100.878 138.75C100.313 138.682 99.7134 138.624 99.0813 138.577C98.4492 138.529 98.0997 138.499 98.0311 138.484L97.8497 138.464L97.8089 138.669C97.6603 139.405 97.6407 140.251 97.7485 141.204L97.7681 141.387L97.9494 141.407C100.318 141.68 102.108 141.98 103.318 142.307C103.506 142.388 103.601 142.69 103.601 143.207C103.601 143.48 103.573 143.705 103.521 143.882C103.441 144.551 103.299 145.027 103.098 145.314V145.314Z" fill="#FFC950"/>
<path d="M35.9789 33.0338C35.8532 33.0338 35.7258 32.9991 35.6114 32.9263C35.288 32.7195 35.19 32.2877 35.3926 31.9601C35.4938 31.7963 37.9341 27.9248 43.6134 25.9659C43.976 25.8402 44.3696 26.0371 44.4938 26.4044C44.6179 26.7717 44.4235 27.1704 44.0609 27.2961C38.8733 29.0846 36.5915 32.6699 36.5686 32.7063C36.4363 32.918 36.2109 33.0338 35.9806 33.0338H35.9789Z" fill="#237BE5"/>
<path d="M14.9328 94.4041C14.5506 94.4041 14.2402 94.0913 14.2402 93.7042C14.2402 93.317 14.5489 93.001 14.9312 92.9994L101.66 92.781C102.044 92.781 102.355 93.0937 102.356 93.4808C102.356 93.868 102.048 94.184 101.665 94.1857L14.9361 94.4041H14.9344H14.9328Z" fill="#FFC950"/>
<path d="M64.9971 116.6C65.608 116.741 66.2107 116.89 66.7971 117.011C69.2096 117.505 71.7168 117.884 74.1244 118.404C74.6161 118.51 75.129 118.622 75.5243 118.938C76.9682 120.091 76.1466 122.403 73.6655 122.351C72.5809 122.328 71.5323 122.353 70.4771 122.255C73.2735 123.442 76.287 123.571 79.2271 124.125C80.7396 124.409 83.3187 125.417 82.7422 127.622C82.5543 128.342 81.9418 128.822 81.2542 129.085C80.6563 129.315 79.2712 129.191 79.2712 129.191C79.2712 129.191 80.8164 129.571 81.4992 130.026C82.177 130.548 82.5723 131.555 82.1411 132.3C81.8601 132.786 81.295 133.046 80.7413 133.097C80.1876 133.148 79.0785 133.314 79.0785 133.314C79.0785 133.314 79.936 133.741 80.2774 133.944C81.1872 134.484 81.3211 135.294 80.9438 136.216C80.7315 136.734 80.2774 137.587 78.4121 137.362C77.9057 137.301 76.2805 136.912 76.2805 136.912C76.2805 136.912 77.0335 137.566 76.9192 138.238C76.764 139.143 75.9342 139.684 75.0865 139.808C73.2326 140.081 70.9688 139.101 69.2096 138.605C67.1074 138.013 65.0151 137.389 62.9146 136.788C61.2583 136.313 59.5759 135.893 58.0111 135.165C55.7391 134.106 53.6794 132.195 53.1551 129.624C52.8431 128.092 53.1241 126.506 53.4834 124.984C53.8852 123.279 54.3932 121.579 55.2883 120.08C56.2847 118.409 57.8919 116.979 59.7474 116.392C61.438 115.856 63.2543 116.2 64.9971 116.602V116.6Z" fill="#FFCC00"/>
<path d="M47.0279 81.6687C43.0261 117.402 66.3475 115.59 66.3475 115.59L60.1243 136.887C19.0595 126.273 30.7022 87.3237 30.7022 87.3237L47.0295 81.6687H47.0279Z" fill="white"/>
<path d="M72.7375 123.299C72.7113 123.299 72.6852 123.299 72.6574 123.294L68.5527 122.819C68.1722 122.774 67.8994 122.427 67.9419 122.041C67.986 121.656 68.329 121.38 68.7095 121.423L72.8142 121.897C73.1948 121.942 73.4676 122.29 73.4251 122.675C73.3843 123.034 73.0854 123.297 72.7375 123.297V123.299Z" fill="black"/>
<path d="M80.7565 130.089C80.7222 130.089 80.6879 130.086 80.6536 130.081C78.6822 129.783 70.4973 128.281 70.151 128.216C69.7737 128.147 69.5238 127.781 69.5924 127.401C69.661 127.019 70.022 126.765 70.3993 126.835C70.4842 126.85 78.9092 128.398 80.8594 128.693C81.2384 128.751 81.4997 129.108 81.4426 129.492C81.3919 129.841 81.0947 130.091 80.7582 130.091L80.7565 130.089Z" fill="black"/>
<path d="M80.2909 134.242C80.2534 134.242 80.2142 134.238 80.175 134.232L69.2803 132.377C68.903 132.313 68.6482 131.95 68.7119 131.568C68.7756 131.186 69.1317 130.928 69.5106 130.992L80.4053 132.847C80.7826 132.912 81.0374 133.274 80.9737 133.656C80.9165 133.998 80.6225 134.242 80.2909 134.242Z" fill="black"/>
<path d="M77.5585 138.324C77.5046 138.324 77.4507 138.317 77.3952 138.304L68.8804 136.226C68.508 136.135 68.2793 135.756 68.3691 135.379C68.459 135.002 68.833 134.77 69.2054 134.861L77.7202 136.939C78.0927 137.03 78.3213 137.409 78.2315 137.786C78.1547 138.107 77.8705 138.324 77.5585 138.324Z" fill="black"/>
<path d="M31.7357 121.399C31.7112 121.606 31.5299 121.755 31.3274 121.734C31.1265 121.707 30.9746 121.535 30.9893 121.327C31.004 121.12 31.1885 120.956 31.3976 120.984C31.6083 121.009 31.7586 121.194 31.7357 121.401V121.399Z" fill="white"/>
<path d="M37.0453 113.048C37.0142 113.147 36.9473 113.225 36.864 113.269C36.8231 113.292 36.7758 113.306 36.7284 113.311C36.681 113.317 36.6304 113.316 36.5814 113.301C36.3854 113.248 36.2678 113.041 36.3217 112.841C36.374 112.639 36.583 112.522 36.7872 112.576C36.8378 112.591 36.8836 112.614 36.9228 112.644C36.9603 112.675 36.9914 112.715 37.0142 112.758C37.06 112.846 37.073 112.947 37.0436 113.048H37.0453Z" fill="white"/>
<path d="M37.9111 130.62C37.8163 130.805 37.5909 130.88 37.4096 130.787C37.2283 130.695 37.1515 130.468 37.2397 130.279C37.3279 130.091 37.5517 130.016 37.7412 130.112C37.9307 130.206 38.0058 130.435 37.9111 130.618V130.62Z" fill="white"/>
<path d="M52.6936 111.04C52.5662 111.203 52.3343 111.233 52.1742 111.106C52.0174 110.975 51.9749 110.748 52.0974 110.58C52.2167 110.412 52.4584 110.371 52.6234 110.505C52.79 110.637 52.821 110.876 52.6953 111.04H52.6936Z" fill="white"/>
<path d="M59.4862 126.232C59.4095 126.301 59.3115 126.331 59.2167 126.324C59.1694 126.321 59.1236 126.309 59.0812 126.288C59.0387 126.266 58.9995 126.237 58.9635 126.2C58.8231 126.051 58.8312 125.813 58.9815 125.672C59.1318 125.528 59.3703 125.538 59.5156 125.694C59.5516 125.732 59.5777 125.778 59.5924 125.826C59.6087 125.874 59.6136 125.924 59.612 125.974C59.6071 126.071 59.563 126.165 59.4862 126.233V126.232Z" fill="white"/>
<path d="M21.1057 126.945C21.091 127.146 20.9979 127.319 20.8623 127.442C20.7954 127.503 20.717 127.551 20.632 127.582C20.5896 127.597 20.5455 127.611 20.4997 127.617C20.4769 127.62 20.454 127.622 20.4295 127.624C20.4066 127.625 20.3821 127.627 20.3593 127.627C20.1682 127.625 19.9967 127.541 19.8693 127.409C19.7435 127.276 19.6618 127.094 19.6602 126.896C19.6585 126.696 19.7386 126.517 19.8725 126.388C20.0081 126.259 20.1976 126.179 20.405 126.183C20.4311 126.183 20.4573 126.184 20.4818 126.188C20.5063 126.193 20.5324 126.198 20.5553 126.204C20.6043 126.217 20.65 126.234 20.6941 126.256C20.7823 126.297 20.8591 126.355 20.9228 126.424C21.0486 126.563 21.1172 126.749 21.1025 126.947L21.1057 126.945Z" fill="white"/>
<path d="M37.6303 128.101C37.5829 128.188 37.5225 128.261 37.4506 128.321C37.3787 128.38 37.2954 128.427 37.2089 128.457C37.0357 128.516 36.8446 128.509 36.6747 128.422C36.6323 128.4 36.5931 128.374 36.5555 128.346C36.5196 128.316 36.4853 128.284 36.4559 128.251C36.3954 128.185 36.3481 128.106 36.3154 128.02C36.2517 127.849 36.2501 127.651 36.3285 127.467C36.4069 127.285 36.5539 127.151 36.7286 127.087C36.8168 127.055 36.9116 127.039 37.0096 127.042C37.0586 127.042 37.1076 127.05 37.155 127.063C37.2023 127.077 37.2497 127.095 37.2971 127.12C37.4833 127.212 37.6156 127.371 37.676 127.548C37.707 127.636 37.7185 127.73 37.7119 127.823C37.7054 127.917 37.6776 128.011 37.6319 128.099L37.6303 128.101Z" fill="white"/>
<path d="M43.2404 132.91C43.0853 133.033 42.8942 133.079 42.7161 133.059C42.6263 133.049 42.5397 133.021 42.4597 132.978C42.3796 132.935 42.3029 132.879 42.2424 132.806C42.1183 132.659 42.066 132.474 42.0791 132.288C42.0938 132.103 42.1673 131.924 42.3127 131.79C42.4564 131.656 42.6492 131.592 42.8305 131.61C43.015 131.626 43.198 131.717 43.3335 131.878C43.4005 131.957 43.4511 132.047 43.4789 132.139C43.5067 132.234 43.5148 132.331 43.505 132.426C43.4871 132.614 43.3956 132.791 43.2388 132.912L43.2404 132.91Z" fill="white"/>
<path d="M32.3801 139.343C32.269 139.616 32.0583 139.822 31.8199 139.936C31.699 139.994 31.5716 140.028 31.4426 140.035C31.3119 140.048 31.1779 140.035 31.0489 139.994C30.9836 139.972 30.9231 139.944 30.866 139.911C30.8088 139.876 30.7533 139.843 30.7026 139.8C30.6014 139.717 30.5164 139.613 30.4511 139.496C30.3858 139.378 30.34 139.246 30.3172 139.112C30.2943 138.976 30.2959 138.832 30.3286 138.688C30.3613 138.544 30.4217 138.414 30.505 138.301C30.5899 138.187 30.6961 138.096 30.8186 138.03C30.9411 137.964 31.0816 137.919 31.2302 137.904C31.3037 137.897 31.3821 137.894 31.4573 137.904C31.5324 137.914 31.6108 137.932 31.6859 137.955C31.8395 138.005 31.9767 138.079 32.0894 138.175C32.2004 138.276 32.2903 138.394 32.3523 138.521C32.4765 138.776 32.4912 139.067 32.3817 139.34L32.3801 139.343Z" fill="white"/>
<path d="M36.2982 35.604C36.504 35.6222 36.6559 35.8025 36.6395 36.0076C36.6183 36.2128 36.455 36.3716 36.2475 36.3634C36.0433 36.3551 35.8751 36.1731 35.8963 35.9597C35.9127 35.7462 36.0924 35.5874 36.2982 35.604Z" fill="#FFCC00"/>
<path d="M45.2069 29.0661C45.3914 29.1571 45.4731 29.3821 45.3882 29.5691C45.3032 29.756 45.0811 29.8404 44.8933 29.756C44.7038 29.6733 44.6238 29.4483 44.7136 29.2531C44.8018 29.0579 45.0239 28.9751 45.2085 29.0645L45.2069 29.0661Z" fill="#FFCC00"/>
<path d="M42.1038 46.1937C42.3015 46.202 42.4762 46.2913 42.602 46.4236C42.6641 46.4898 42.7147 46.5676 42.7474 46.652C42.7637 46.695 42.7768 46.738 42.7849 46.7843C42.7882 46.8075 42.7915 46.8307 42.7931 46.8538C42.7964 46.877 42.798 46.9018 42.798 46.925C42.8013 47.1185 42.7245 47.2956 42.5987 47.4279C42.473 47.5603 42.2949 47.648 42.0989 47.6562C41.9013 47.6645 41.7232 47.5884 41.5909 47.456C41.4586 47.3237 41.3753 47.1334 41.3721 46.9233C41.3721 46.8968 41.3721 46.8704 41.3737 46.8455C41.377 46.8207 41.3819 46.7943 41.3868 46.7694C41.3982 46.7198 41.4129 46.6735 41.4325 46.6272C41.4717 46.5362 41.5256 46.4567 41.5926 46.3906C41.7249 46.2582 41.9062 46.1838 42.1022 46.192L42.1038 46.1937Z" fill="#FFCC00"/>
<path d="M42.7292 29.4284C42.8174 29.4731 42.8909 29.5326 42.953 29.6038C43.0151 29.6749 43.0624 29.7576 43.0935 29.8437C43.1572 30.0174 43.1572 30.211 43.0755 30.3863C43.0559 30.431 43.0314 30.4707 43.0036 30.5088C42.9742 30.5452 42.9448 30.5816 42.9138 30.613C42.8501 30.6775 42.7733 30.7272 42.69 30.7619C42.5234 30.8314 42.3274 30.8397 42.1445 30.7669C41.9615 30.6924 41.8259 30.5485 41.7573 30.3731C41.723 30.2854 41.7051 30.1895 41.7051 30.0902C41.7051 30.0406 41.71 29.9909 41.723 29.9429C41.7345 29.895 41.7508 29.8453 41.7737 29.7973C41.8602 29.6054 42.0122 29.4665 42.1853 29.4003C42.2719 29.3672 42.3633 29.3506 42.4548 29.3556C42.5479 29.3606 42.6426 29.3837 42.7292 29.4284Z" fill="#FFCC00"/>
<path d="M53.9862 34.3931C54.259 34.4974 54.4681 34.7042 54.589 34.9424C54.6494 35.0632 54.687 35.1906 54.6984 35.3213C54.7147 35.4536 54.7082 35.5877 54.6706 35.7217C54.6527 35.7878 54.6265 35.8507 54.5939 35.9103C54.5612 35.9698 54.5318 36.0261 54.491 36.079C54.4109 36.1833 54.3129 36.2726 54.1986 36.3421C54.0842 36.4116 53.9552 36.4629 53.8245 36.491C53.6922 36.5191 53.5501 36.5208 53.4064 36.4927C53.2643 36.4645 53.132 36.4066 53.0193 36.3256C52.9049 36.2445 52.8118 36.1386 52.7416 36.0162C52.6714 35.8937 52.624 35.7531 52.6044 35.6042C52.5946 35.5298 52.5897 35.452 52.5979 35.3742C52.606 35.2965 52.6207 35.2187 52.642 35.1409C52.6861 34.9838 52.7563 34.8431 52.8461 34.7257C52.9425 34.6099 53.0552 34.5156 53.1794 34.4477C53.4276 34.3137 53.7151 34.2889 53.9862 34.3931V34.3931Z" fill="#FFCC00"/>
<path d="M66.3495 116.293C60.2603 116.195 55.432 114.059 51.9889 109.941C50.0631 107.638 48.5686 104.703 47.5493 101.219C46.7408 98.4557 46.2263 95.3386 46.0189 91.9569C45.6677 86.2142 46.3178 81.7505 46.3455 81.5618C46.4027 81.178 46.7555 80.9149 47.1345 80.9712C47.5134 81.0291 47.7747 81.3865 47.7176 81.7703C47.711 81.815 47.061 86.3003 47.4056 91.9006C47.7208 97.0179 48.9573 104.144 53.0506 109.034C56.2242 112.826 60.7029 114.795 66.361 114.886C66.7432 114.893 67.0486 115.212 67.0437 115.599C67.0372 115.983 66.7285 116.291 66.3512 116.291L66.3495 116.293Z" fill="black"/>
<path d="M58.1535 51.5691C58.1911 51.1638 58.3659 50.7733 58.6076 50.4524C58.9424 50.0073 59.5762 50.1132 59.8914 50.5053C60.5007 51.2647 60.5007 52.4046 59.9127 53.174C59.7951 53.3295 59.5599 53.4569 59.3655 53.4668C58.9833 53.485 58.6517 53.2716 58.4541 52.949C58.2107 52.5535 58.1127 52.0291 58.1535 51.5675V51.5691Z" fill="black"/>
<path d="M69.2785 51.5691C69.3161 51.1638 69.4909 50.7733 69.7326 50.4524C70.0674 50.0073 70.7012 50.1132 71.0164 50.5053C71.6257 51.2647 71.6257 52.4046 71.0377 53.174C70.9201 53.3295 70.6849 53.4569 70.4905 53.4668C70.1083 53.485 69.7767 53.2716 69.5791 52.949C69.3357 52.5535 69.2377 52.0291 69.2785 51.5675V51.5691Z" fill="black"/>
</svg>
