<svg width="60" height="60" viewBox="0 0 60 60" fill="none" xmlns="http://www.w3.org/2000/svg">
<circle cx="30" cy="30" r="30" fill="#FFEBD5"/>
<path d="M33.0082 30.3257C31.3317 28.5529 29.7381 26.719 28.3928 24.6813C27.4408 23.2141 26.5922 21.5636 25.5781 20.5447C24.6674 19.6074 24.0879 18.6089 23.7982 17.5901C21.7699 18.1606 20.3625 18.6497 18.5412 20.5244C5.85425 33.4027 24.2328 53.2907 38.3479 40.2086C39.3827 39.2509 39.0102 38.0894 39.6311 37.0502C37.6649 34.8087 35.0778 32.5061 33.0082 30.3257Z" fill="#DE814B"/>
<path d="M38.3471 40.2086C25.2668 50.6621 7.05383 34.0548 18.5404 20.504C18.7267 20.3003 18.9337 20.0761 19.1406 19.8723C21.7691 17.3048 24.6873 16.1026 27.5434 15.9192C27.8332 15.8988 28.0609 16.123 28.0816 16.3879C28.1229 18.0588 29.2199 19.1795 30.8342 19.4037C31.0826 19.4444 31.2274 19.6686 31.1653 19.9131C30.9998 20.4429 30.9377 21.0135 30.9377 21.6044C30.9998 24.5998 33.5248 27.0654 36.5672 27.0858C37.188 27.0858 37.7883 27.0043 38.3678 26.8209C38.5954 26.7394 38.8438 26.8821 38.8852 27.1266C39.2577 29.1235 41.0997 28.7567 41.969 28.4715C42.2173 28.39 42.4864 28.5326 42.5485 28.7771C44.2456 34.8699 38.3471 40.2086 38.3471 40.2086Z" fill="#F6B059"/>
<path d="M29.4695 27.3303C29.4695 28.8382 28.2277 29.8571 26.6962 29.8571C25.1646 29.8571 23.9229 28.8382 23.9229 27.3303C23.9229 25.8224 25.1646 24.5998 26.6962 24.5998C28.2277 24.5998 29.4695 25.8021 29.4695 27.3303Z" fill="#6D420D"/>
<path d="M38.1821 33.9122C38.1821 35.0736 37.2301 36.011 36.0503 36.011C34.8706 36.011 34.0635 35.3182 34.0635 34.1567C34.0635 32.9952 34.8706 31.7929 36.0503 31.7929C37.2301 31.7929 38.1821 32.7507 38.1821 33.9122Z" fill="#6D420D"/>
<path d="M22.2476 31.3447C22.2476 32.2413 21.5853 32.7507 20.6747 32.7507C19.764 32.7507 18.9775 32.2413 18.9775 31.3447C18.9775 30.4481 19.7019 29.7349 20.6126 29.7349C21.5232 29.7349 22.2476 30.4481 22.2476 31.3447Z" fill="#6D420D"/>
<path d="M27.2538 36.8056C27.2538 37.2131 26.9227 37.5391 26.5087 37.5391C26.0948 37.5391 25.7637 37.2131 25.7637 36.8056C25.7637 36.398 26.0948 36.072 26.5087 36.072C26.9227 36.072 27.2538 36.398 27.2538 36.8056Z" fill="#6D420D"/>
<path d="M22.2038 22.725C22.6611 22.725 23.0317 22.3601 23.0317 21.91C23.0317 21.4598 22.6611 21.0949 22.2038 21.0949C21.7466 21.0949 21.376 21.4598 21.376 21.91C21.376 22.3601 21.7466 22.725 22.2038 22.725Z" fill="#6D420D"/>
<path d="M42.3374 16.4374C42.4267 17.5084 41.4895 18.3785 40.24 18.3785C38.9905 18.3785 38.0311 17.4191 38.098 16.2365C38.165 15.054 39.1021 14.1838 40.1954 14.2954C41.2887 14.4069 42.2482 15.344 42.3374 16.4374Z" fill="#F6B059"/>
<path d="M40.732 17.9545C41.2229 17.9545 41.6692 17.8206 42.0262 17.5752C41.6468 18.066 41.0221 18.3784 40.2635 18.3784C39.014 18.3784 38.0545 17.419 38.1215 16.2587C38.1661 15.5447 38.5231 14.9423 39.0363 14.6076C38.7908 14.9423 38.6123 15.3662 38.59 15.8348C38.5454 16.9727 39.5048 17.9322 40.732 17.9545Z" fill="#DE814B"/>
<path d="M42.2258 22.5062C42.1811 23.2202 41.5787 23.8226 40.887 23.8896C40.1953 23.9342 39.6375 23.3541 39.6598 22.5954C39.6598 21.8368 40.2623 21.2121 40.9986 21.2121C41.7349 21.2121 42.2704 21.7922 42.2258 22.5062Z" fill="#F6B059"/>
<path d="M41.153 23.5772C41.4207 23.5549 41.6885 23.4433 41.9116 23.2872C41.6662 23.6218 41.2869 23.845 40.8629 23.8896C40.1712 23.9342 39.6357 23.3541 39.6357 22.5955C39.6357 22.1492 39.8589 21.7253 40.1936 21.4798C40.0374 21.703 39.9258 21.993 39.9258 22.2831C39.9035 23.0417 40.4613 23.6218 41.153 23.5772Z" fill="#DE814B"/>
<path d="M51.3509 23.0641C51.284 23.912 50.5923 24.626 49.7667 24.6706C48.9635 24.7152 48.3164 24.0459 48.3164 23.1534C48.3387 22.2609 49.0304 21.5469 49.9006 21.5469C50.7708 21.5469 51.4178 22.2386 51.3509 23.0641Z" fill="#F6B059"/>
<path d="M50.1014 24.336C50.4361 24.3137 50.7485 24.1798 50.9939 23.979C50.7038 24.3806 50.2576 24.6484 49.7667 24.6707C48.9635 24.7153 48.3164 24.0459 48.3164 23.1534C48.3164 22.6179 48.5842 22.1494 48.9635 21.837C48.7627 22.1047 48.6511 22.4394 48.6511 22.7964C48.6511 23.7112 49.2982 24.3806 50.1014 24.336Z" fill="#DE814B"/>
</svg>
